<svg id="Layer_1" data-name="Layer 1" xmlns="http://www.w3.org/2000/svg" viewBox="0 0 100 100"><defs><style>.cls-1{fill:#fff;}</style></defs><circle class="cls-1" cx="50" cy="50" r="14.96"/><polygon class="cls-1" points="39.62 21.81 43.36 19.65 43.36 19.66 39.62 21.81"/><polygon class="cls-1" points="43.36 19.65 43.36 19.66 39.62 21.81 43.36 19.65"/><polygon class="cls-1" points="60.84 22.07 56.65 19.66 56.65 19.65 60.84 22.07"/><polygon class="cls-1" points="39.62 21.81 43.36 19.65 43.36 19.66 39.62 21.81"/><polygon class="cls-1" points="60.38 78.19 56.64 80.35 56.64 80.34 60.38 78.19"/><polygon class="cls-1" points="43.35 80.34 43.35 80.35 39.16 77.93 43.35 80.34"/><polygon class="cls-1" points="60.38 78.19 56.64 80.35 56.64 80.34 60.38 78.19"/><path class="cls-1" d="M27.32,42V58a6.81,6.81,0,0,0-6.92,1.38V40.58A6.72,6.72,0,0,0,25,42.39,6.53,6.53,0,0,0,27.32,42Z"/><path class="cls-1" d="M43.35,80.34l-4.19-2.41-.17-.1L27.05,70.92a6.74,6.74,0,0,0,4.67-5.29l13.89,8A6.82,6.82,0,0,0,43.35,80.34Z"/><path class="cls-1" d="M72.94,70.93,60.38,78.19l-3.74,2.15a6.62,6.62,0,0,0-.74-4.89,6.3,6.3,0,0,0-1.51-1.8l13.9-8A6.8,6.8,0,0,0,72.94,70.93Z"/><polygon class="cls-1" points="60.38 78.19 56.64 80.35 56.64 80.34 60.38 78.19"/><path class="cls-1" d="M45.61,26.35l-13.9,8a6.8,6.8,0,0,0-4.65-5.3l12.56-7.26,3.74-2.15a6.62,6.62,0,0,0,.74,4.89A6.3,6.3,0,0,0,45.61,26.35Z"/><path class="cls-1" d="M73,29.08a6.74,6.74,0,0,0-4.67,5.29l-13.89-8a6.82,6.82,0,0,0,2.26-6.69l4.19,2.41.17.1Z"/><path class="cls-1" d="M79.6,40.59V59.42A6.72,6.72,0,0,0,75,57.61a6.53,6.53,0,0,0-2.31.41V42A6.81,6.81,0,0,0,79.6,40.59Z"/></svg>