<svg id="Layer_1" data-name="Layer 1" xmlns="http://www.w3.org/2000/svg" xmlns:xlink="http://www.w3.org/1999/xlink" viewBox="0 0 100 100"><defs><style>.cls-1{fill:#fff;}.cls-2{clip-path:url(#clip-path);}</style><clipPath id="clip-path"><path class="cls-1" d="M46.42,60.84l-.1.06h0c-.85.51-1.85.84-1.82,1s.6.07,1.1-.14a8.59,8.59,0,0,1-8,2.52,12.51,12.51,0,0,1-9.13-8.57,10.7,10.7,0,0,1,2.71-10.51c-.12.32-.16,1.13,0,1.14s.59-1.47,1-2.15h0a9.09,9.09,0,0,1,5.5-3.85c1.5-.26,3.57,0,5.18,2.65-1.71-1-3.17-1-4.28,0l-.21.19.25.14.42.21a3.4,3.4,0,0,1,1.32.94c-2-.42-4.31-.53-5.28.9l0,.08c-1.12,7.85,2.64,12.14,6.87,12.91a6.33,6.33,0,0,0,7.22-3.57A5.87,5.87,0,0,1,46.42,60.84Z"/></clipPath></defs><path class="cls-1" d="M43,63.41l.08.11.06,0Z"/><path class="cls-1" d="M43,63.41l.08.11.06,0Z"/><path class="cls-1" d="M46.42,60.84l-.1.06h0c-.85.51-1.85.84-1.82,1s.6.07,1.1-.14a8.59,8.59,0,0,1-8,2.52,12.51,12.51,0,0,1-9.13-8.57,10.7,10.7,0,0,1,2.71-10.51c-.12.32-.16,1.13,0,1.14s.59-1.47,1-2.15h0a9.09,9.09,0,0,1,5.5-3.85c1.5-.26,3.57,0,5.18,2.65-1.71-1-3.17-1-4.28,0l-.21.19.25.14.42.21a3.4,3.4,0,0,1,1.32.94c-2-.42-4.31-.53-5.28.9l0,.08c-1.12,7.85,2.64,12.14,6.87,12.91a6.33,6.33,0,0,0,7.22-3.57A5.87,5.87,0,0,1,46.42,60.84Z"/><g class="cls-2"><path class="cls-1" d="M46.48,61c-9,11-26.72-5.74-14.5-17,2.22-3.44,8.29-6.85,11.47-.46-2.84-2.06-4.26-.92-4.72-.5a4,4,0,0,1,2.1,1.65c-2.11-.51-4.62-.72-5.58.69-2,14.29,12.14,15.88,13.94,8.39C50.05,58,48.08,60.05,46.48,61Z"/></g><path class="cls-1" d="M71.84,45.15C69.76,35.81,61.79,27.54,52.9,25.5c-7.08-1.62-13.63.91-18.45,7.11A11.63,11.63,0,0,0,30,36.8c-1.72,2.88-2.08,6.54-1.08,10.87a10.67,10.67,0,0,0-.81,8.11,13,13,0,0,0,9.45,8.86,10,10,0,0,0,1.87.18,8.74,8.74,0,0,0,3.8-.87c2.58,3.5,4.41,5.63,8,6.18-2.83.54-7.3,1.18-11.24-3.62l-.69-.85.39,1c2.55,6.57,6.55,8.3,10.06,8.3a11.67,11.67,0,0,0,2.25-.23,20.36,20.36,0,0,0,11.33-7.33,0,0,0,0,0,0,0C70.68,61.47,73.73,53.57,71.84,45.15ZM43.11,63.52,43,63.41l.14.08ZM42,57.89C38,57.16,34.4,53,35.46,45.5c1-1.38,3.75-1,5.32-.57l.46.11L41,44.63a3.56,3.56,0,0,0-1.8-1.54L39.11,43c1-.75,2.39-.56,4,.57a5.8,5.8,0,0,0,3.39,10.5A5.72,5.72,0,0,0,49,53.53l-.06.24C48.16,57.17,44.84,58.42,42,57.89Zm15,6.54c-1.69,2.49-9.12,1.36-13.22-.77a10.42,10.42,0,0,0,2.9-2.5c1.64-1,3.61-3.19,2.75-7.38l-.08-.39a5.8,5.8,0,0,0-2.79-10.88,5.7,5.7,0,0,0-3,.83c-1.75-3.4-4.2-3.78-6-3.47a9.37,9.37,0,0,0-5.81,4.06,14.48,14.48,0,0,0-2.24,2.59,10.87,10.87,0,0,1,5.53-8.34,13.55,13.55,0,0,1,14.28.94C53.11,41.71,59.06,48.43,57,64.43Z"/></svg>