<svg id="Layer_1" data-name="Layer 1" xmlns="http://www.w3.org/2000/svg" viewBox="0 0 100 100"><defs><style>.cls-1{fill:#fff;}</style></defs><polygon class="cls-1" points="41.4 56.21 24.24 62.84 21.39 76.81 41.4 61.82 41.4 56.21"/><polygon class="cls-1" points="50.77 58.95 65.08 70.5 78.61 65.98 55.63 56.14 50.77 58.95"/><polygon class="cls-1" points="35.36 51.72 38.6 46.88 32.75 42.29 24.53 47 35.36 51.72"/><polygon class="cls-1" points="49.9 66.43 44.09 66.04 43.04 73.4 51.23 78.16 49.9 66.43"/><polygon class="cls-1" points="48.45 49.47 51.3 31.29 40.62 21.84 43.59 46.66 48.45 49.47"/><polygon class="cls-1" points="55.37 46.48 57.93 51.71 64.84 48.94 64.86 39.46 55.37 46.48"/></svg>