<svg id="Layer_1" data-name="Layer 1" xmlns="http://www.w3.org/2000/svg" viewBox="0 0 100 100"><defs><style>.cls-1{fill:#fff;}</style></defs><path class="cls-1" d="M65.88,41.38V37.91L51.07,29.36H48.92L34.1,37.91v3.47l-3,1.74V60.21l1.07,1.87L47,70.64l1.92-1.11V49.94h2.16V69.53L53,70.64l14.81-8.56,1.07-1.87V43.12ZM46.78,68.05l-13-7.53-.51-.88V44.34l.86-.5,12.68,7.32Zm3.73-20.26h-1L36.24,40.15v-1L49.49,31.5h1l13.24,7.65v1ZM66.75,59.64l-.5.88-13,7.53V51.16l12.66-7.32.88.5Z"/><polygon class="cls-1" points="66.76 44.34 66.75 59.64 66.25 60.52 53.22 68.05 53.22 51.16 65.88 43.84 66.76 44.34"/><polygon class="cls-1" points="46.78 51.16 46.78 68.05 33.75 60.52 33.24 59.64 33.24 44.34 34.1 43.84 46.78 51.16"/><polygon class="cls-1" points="48.92 49.92 48.92 49.94 48.9 49.92 48.92 49.92"/><polygon class="cls-1" points="51.1 49.92 51.08 49.94 51.08 49.92 51.1 49.92"/></svg>