<svg id="Layer_1" data-name="Layer 1" xmlns="http://www.w3.org/2000/svg" viewBox="0 0 100 100"><defs><style>.cls-1{fill:#fff;}</style></defs><path class="cls-1" d="M77.57,50l-9.46-3-6.83-4.84,4.8-4.81-3.43-3.43-4.81,4.81L53,31.89l-3-9.46-3,9.46-4.85,6.83-4.8-4.8-3.43,3.43,4.8,4.81L31.9,47l-9.47,3,9.47,3,6.83,4.85-4.8,4.8,3.43,3.43,4.8-4.8L47,68.1l3,9.47,3-9.47,4.84-6.83,4.81,4.8,3.43-3.43-4.8-4.8L68.11,53ZM60.74,57.3l-6.6-6.59-10,10,7.85-1,2.19-2.2,3.16,3.16L50,63.09l-7.3-2.36,6.59-6.59-10-10,1,7.85,2.2,2.2L39.27,57.3,36.91,50l2.36-7.3,6.59,6.59,10-10-7.85,1-2.2,2.19L42.7,39.26,50,36.91l7.31,2.35-6.6,6.6,10,10-1-7.85-2.19-2.19,3.16-3.16L63.09,50Z"/></svg>