<svg id="Layer_1" data-name="Layer 1" xmlns="http://www.w3.org/2000/svg" viewBox="0 0 100 100"><defs><style>.cls-1{fill:#5cf26a;}</style></defs><path class="cls-1" d="M39.32,43.83a13,13,0,0,1-2.46-7.64,13.18,13.18,0,0,1,26.36,0,13,13,0,0,1-2.45,7.64,22.65,22.65,0,0,0-21.45,0Z"/><path class="cls-1" d="M30.1,47a5.27,5.27,0,0,0-1,8.19,23.08,23.08,0,0,1,3-5.18A21.59,21.59,0,0,1,30.1,47Zm0,0a5.27,5.27,0,0,0-1,8.19,23.08,23.08,0,0,1,3-5.18A21.59,21.59,0,0,1,30.1,47Zm0,0a5.27,5.27,0,0,0-1,8.19,23.08,23.08,0,0,1,3-5.18A21.59,21.59,0,0,1,30.1,47ZM50,50.63A13.18,13.18,0,1,0,63.22,63.81,13.21,13.21,0,0,0,50,50.63ZM70,47A22,22,0,0,1,68,50a23.23,23.23,0,0,1,3,5.11,5.29,5.29,0,0,0,1.45-3.6A5.23,5.23,0,0,0,70,47Zm0,0A22,22,0,0,1,68,50a23.23,23.23,0,0,1,3,5.11,5.29,5.29,0,0,0,1.45-3.6A5.23,5.23,0,0,0,70,47ZM50,50.63A13.18,13.18,0,1,0,63.22,63.81,13.21,13.21,0,0,0,50,50.63ZM30.1,47a5.27,5.27,0,0,0-1,8.19,23.08,23.08,0,0,1,3-5.18A21.59,21.59,0,0,1,30.1,47Zm0,0a5.27,5.27,0,0,0-1,8.19,23.08,23.08,0,0,1,3-5.18A21.59,21.59,0,0,1,30.1,47ZM50,50.63A13.18,13.18,0,1,0,63.22,63.81,13.21,13.21,0,0,0,50,50.63ZM70,47A22,22,0,0,1,68,50a23.23,23.23,0,0,1,3,5.11,5.29,5.29,0,0,0,1.45-3.6A5.23,5.23,0,0,0,70,47Zm0,0A22,22,0,0,1,68,50a23.23,23.23,0,0,1,3,5.11,5.29,5.29,0,0,0,1.45-3.6A5.23,5.23,0,0,0,70,47ZM50,50.63A13.18,13.18,0,1,0,63.22,63.81,13.21,13.21,0,0,0,50,50.63ZM30.1,47a5.27,5.27,0,0,0-1,8.19,23.08,23.08,0,0,1,3-5.18A21.59,21.59,0,0,1,30.1,47Zm0,0a5.27,5.27,0,0,0-1,8.19,23.08,23.08,0,0,1,3-5.18A21.59,21.59,0,0,1,30.1,47ZM50,50.63A13.18,13.18,0,1,0,63.22,63.81,13.21,13.21,0,0,0,50,50.63ZM70,47A22,22,0,0,1,68,50a23.23,23.23,0,0,1,3,5.11,5.29,5.29,0,0,0,1.45-3.6A5.23,5.23,0,0,0,70,47Zm0,0A22,22,0,0,1,68,50a23.23,23.23,0,0,1,3,5.11,5.29,5.29,0,0,0,1.45-3.6A5.23,5.23,0,0,0,70,47ZM50,50.63A13.18,13.18,0,1,0,63.22,63.81,13.21,13.21,0,0,0,50,50.63ZM30.1,47a5.27,5.27,0,0,0-1,8.19,23.08,23.08,0,0,1,3-5.18A21.59,21.59,0,0,1,30.1,47Zm0,0a5.27,5.27,0,0,0-1,8.19,23.08,23.08,0,0,1,3-5.18A21.59,21.59,0,0,1,30.1,47ZM50,50.63A13.18,13.18,0,1,0,63.22,63.81,13.21,13.21,0,0,0,50,50.63ZM70,47A22,22,0,0,1,68,50a23.23,23.23,0,0,1,3,5.11,5.29,5.29,0,0,0,1.45-3.6A5.23,5.23,0,0,0,70,47Zm0,0A22,22,0,0,1,68,50a23.23,23.23,0,0,1,3,5.11,5.29,5.29,0,0,0,1.45-3.6A5.23,5.23,0,0,0,70,47ZM50,50.63A13.18,13.18,0,1,0,63.22,63.81,13.21,13.21,0,0,0,50,50.63ZM30.1,47a5.27,5.27,0,0,0-1,8.19,23.08,23.08,0,0,1,3-5.18A21.59,21.59,0,0,1,30.1,47Zm0,0a5.27,5.27,0,0,0-1,8.19,23.08,23.08,0,0,1,3-5.18A21.59,21.59,0,0,1,30.1,47ZM50,50.63A13.18,13.18,0,1,0,63.22,63.81,13.21,13.21,0,0,0,50,50.63ZM70,47A22,22,0,0,1,68,50a23.23,23.23,0,0,1,3,5.11,5.29,5.29,0,0,0,1.45-3.6A5.23,5.23,0,0,0,70,47Zm0,0A22,22,0,0,1,68,50a23.23,23.23,0,0,1,3,5.11,5.29,5.29,0,0,0,1.45-3.6A5.23,5.23,0,0,0,70,47ZM50,50.63A13.18,13.18,0,1,0,63.22,63.81,13.21,13.21,0,0,0,50,50.63ZM30.1,47a5.27,5.27,0,0,0-1,8.19,23.08,23.08,0,0,1,3-5.18A21.59,21.59,0,0,1,30.1,47Zm0,0a5.27,5.27,0,0,0-1,8.19,23.08,23.08,0,0,1,3-5.18A21.59,21.59,0,0,1,30.1,47ZM50,50.63A13.18,13.18,0,1,0,63.22,63.81,13.21,13.21,0,0,0,50,50.63ZM70,47A22,22,0,0,1,68,50a23.23,23.23,0,0,1,3,5.11,5.29,5.29,0,0,0,1.45-3.6A5.23,5.23,0,0,0,70,47Zm0,0A22,22,0,0,1,68,50a23.23,23.23,0,0,1,3,5.11,5.29,5.29,0,0,0,1.45-3.6A5.23,5.23,0,0,0,70,47ZM50,50.63A13.18,13.18,0,1,0,63.22,63.81,13.21,13.21,0,0,0,50,50.63ZM30.1,47a5.27,5.27,0,0,0-1,8.19,23.08,23.08,0,0,1,3-5.18A21.59,21.59,0,0,1,30.1,47Zm0,0a5.27,5.27,0,0,0-1,8.19,23.08,23.08,0,0,1,3-5.18A21.59,21.59,0,0,1,30.1,47ZM50,50.63A13.18,13.18,0,1,0,63.22,63.81,13.21,13.21,0,0,0,50,50.63ZM70,47A22,22,0,0,1,68,50a23.23,23.23,0,0,1,3,5.11,5.29,5.29,0,0,0,1.45-3.6A5.23,5.23,0,0,0,70,47Zm0,0A22,22,0,0,1,68,50a23.23,23.23,0,0,1,3,5.11,5.29,5.29,0,0,0,1.45-3.6A5.23,5.23,0,0,0,70,47ZM50,50.63A13.18,13.18,0,1,0,63.22,63.81,13.21,13.21,0,0,0,50,50.63ZM30.1,47a5.27,5.27,0,0,0-1,8.19,23.08,23.08,0,0,1,3-5.18A21.59,21.59,0,0,1,30.1,47Zm0,0a5.27,5.27,0,0,0-1,8.19,23.08,23.08,0,0,1,3-5.18A21.59,21.59,0,0,1,30.1,47ZM50,50.63A13.18,13.18,0,1,0,63.22,63.81,13.21,13.21,0,0,0,50,50.63ZM70,47A22,22,0,0,1,68,50a23.23,23.23,0,0,1,3,5.11,5.29,5.29,0,0,0,1.45-3.6A5.23,5.23,0,0,0,70,47Zm0,0A22,22,0,0,1,68,50a23.23,23.23,0,0,1,3,5.11,5.29,5.29,0,0,0,1.45-3.6A5.23,5.23,0,0,0,70,47ZM50,50.63A13.18,13.18,0,1,0,63.22,63.81,13.21,13.21,0,0,0,50,50.63ZM30.1,47a5.27,5.27,0,0,0-1,8.19,23.08,23.08,0,0,1,3-5.18A21.59,21.59,0,0,1,30.1,47Zm0,0a5.27,5.27,0,0,0-1,8.19,23.08,23.08,0,0,1,3-5.18A21.59,21.59,0,0,1,30.1,47ZM50,50.63A13.18,13.18,0,1,0,63.22,63.81,13.21,13.21,0,0,0,50,50.63ZM70,47A22,22,0,0,1,68,50a23.23,23.23,0,0,1,3,5.11,5.29,5.29,0,0,0,1.45-3.6A5.23,5.23,0,0,0,70,47Zm0,0A22,22,0,0,1,68,50a23.23,23.23,0,0,1,3,5.11,5.29,5.29,0,0,0,1.45-3.6A5.23,5.23,0,0,0,70,47ZM50,50.63A13.18,13.18,0,1,0,63.22,63.81,13.21,13.21,0,0,0,50,50.63ZM30.1,47a5.27,5.27,0,0,0-1,8.19,23.08,23.08,0,0,1,3-5.18A21.59,21.59,0,0,1,30.1,47Zm0,0a5.27,5.27,0,0,0-1,8.19,23.08,23.08,0,0,1,3-5.18A21.59,21.59,0,0,1,30.1,47ZM50,50.63A13.18,13.18,0,1,0,63.22,63.81,13.21,13.21,0,0,0,50,50.63ZM70,47A22,22,0,0,1,68,50a23.23,23.23,0,0,1,3,5.11,5.29,5.29,0,0,0,1.45-3.6A5.23,5.23,0,0,0,70,47Zm0,0A22,22,0,0,1,68,50a23.23,23.23,0,0,1,3,5.11,5.29,5.29,0,0,0,1.45-3.6A5.23,5.23,0,0,0,70,47ZM50,50.63A13.18,13.18,0,1,0,63.22,63.81,13.21,13.21,0,0,0,50,50.63ZM30.1,47a5.27,5.27,0,0,0-1,8.19,23.08,23.08,0,0,1,3-5.18A21.59,21.59,0,0,1,30.1,47Zm0,0a5.27,5.27,0,0,0-1,8.19,23.08,23.08,0,0,1,3-5.18A21.59,21.59,0,0,1,30.1,47ZM50,50.63A13.18,13.18,0,1,0,63.22,63.81,13.21,13.21,0,0,0,50,50.63ZM70,47A22,22,0,0,1,68,50a23.23,23.23,0,0,1,3,5.11,5.29,5.29,0,0,0,1.45-3.6A5.23,5.23,0,0,0,70,47Zm0,0A22,22,0,0,1,68,50a23.23,23.23,0,0,1,3,5.11,5.29,5.29,0,0,0,1.45-3.6A5.23,5.23,0,0,0,70,47ZM50,50.63A13.18,13.18,0,1,0,63.22,63.81,13.21,13.21,0,0,0,50,50.63ZM30.1,47a5.27,5.27,0,0,0-1,8.19,23.08,23.08,0,0,1,3-5.18A21.59,21.59,0,0,1,30.1,47Zm0,0a5.27,5.27,0,0,0-1,8.19,23.08,23.08,0,0,1,3-5.18A21.59,21.59,0,0,1,30.1,47ZM50,50.63A13.18,13.18,0,1,0,63.22,63.81,13.21,13.21,0,0,0,50,50.63ZM70,47A22,22,0,0,1,68,50a23.23,23.23,0,0,1,3,5.11,5.29,5.29,0,0,0,1.45-3.6A5.23,5.23,0,0,0,70,47Zm0,0A22,22,0,0,1,68,50a23.23,23.23,0,0,1,3,5.11,5.29,5.29,0,0,0,1.45-3.6A5.23,5.23,0,0,0,70,47ZM50,50.63A13.18,13.18,0,1,0,63.22,63.81,13.21,13.21,0,0,0,50,50.63ZM30.1,47a5.27,5.27,0,0,0-1,8.19,23.08,23.08,0,0,1,3-5.18A21.59,21.59,0,0,1,30.1,47Zm0,0a5.27,5.27,0,0,0-1,8.19,23.08,23.08,0,0,1,3-5.18A21.59,21.59,0,0,1,30.1,47ZM50,50.63A13.18,13.18,0,1,0,63.22,63.81,13.21,13.21,0,0,0,50,50.63ZM70,47A22,22,0,0,1,68,50a23.23,23.23,0,0,1,3,5.11,5.29,5.29,0,0,0,1.45-3.6A5.23,5.23,0,0,0,70,47Zm0,0A22,22,0,0,1,68,50a23.23,23.23,0,0,1,3,5.11,5.29,5.29,0,0,0,1.45-3.6A5.23,5.23,0,0,0,70,47ZM50,50.63A13.18,13.18,0,1,0,63.22,63.81,13.21,13.21,0,0,0,50,50.63ZM30.1,47a5.27,5.27,0,0,0-1,8.19,23.08,23.08,0,0,1,3-5.18A21.59,21.59,0,0,1,30.1,47ZM77.94,51.5a10.75,10.75,0,0,0-9.17-10.64,19.62,19.62,0,0,0,.58-4.69,19.31,19.31,0,1,0-38,4.67,10.75,10.75,0,0,0-.49,21.21c-.05.58-.08,1.17-.08,1.76a19.31,19.31,0,1,0,38.61,0c0-.59,0-1.18-.09-1.77A10.77,10.77,0,0,0,77.94,51.5ZM50,19.62a16.55,16.55,0,0,1,11.35,28.6,19.22,19.22,0,0,0-22.7,0A16.55,16.55,0,0,1,50,19.62ZM24.18,51.5a8.62,8.62,0,0,1,7.76-8.6A19.43,19.43,0,0,0,36.59,50a19,19,0,0,0-5.46,10A8.65,8.65,0,0,1,24.18,51.5ZM50,80.38A16.57,16.57,0,1,1,66.6,63.81,16.57,16.57,0,0,1,50,80.38ZM69,60a19.13,19.13,0,0,0-5.47-10,19,19,0,0,0,4.64-7.11A8.65,8.65,0,0,1,69,60ZM70,47A22,22,0,0,1,68,50a23.23,23.23,0,0,1,3,5.11,5.29,5.29,0,0,0,1.45-3.6A5.23,5.23,0,0,0,70,47ZM50,50.63A13.18,13.18,0,1,0,63.22,63.81,13.21,13.21,0,0,0,50,50.63ZM30.1,47a5.27,5.27,0,0,0-1,8.19,23.08,23.08,0,0,1,3-5.18A21.59,21.59,0,0,1,30.1,47Zm0,0a5.27,5.27,0,0,0-1,8.19,23.08,23.08,0,0,1,3-5.18A21.59,21.59,0,0,1,30.1,47ZM50,50.63A13.18,13.18,0,1,0,63.22,63.81,13.21,13.21,0,0,0,50,50.63ZM70,47A22,22,0,0,1,68,50a23.23,23.23,0,0,1,3,5.11,5.29,5.29,0,0,0,1.45-3.6A5.23,5.23,0,0,0,70,47Zm0,0A22,22,0,0,1,68,50a23.23,23.23,0,0,1,3,5.11,5.29,5.29,0,0,0,1.45-3.6A5.23,5.23,0,0,0,70,47ZM50,50.63A13.18,13.18,0,1,0,63.22,63.81,13.21,13.21,0,0,0,50,50.63ZM30.1,47a5.27,5.27,0,0,0-1,8.19,23.08,23.08,0,0,1,3-5.18A21.59,21.59,0,0,1,30.1,47Zm0,0a5.27,5.27,0,0,0-1,8.19,23.08,23.08,0,0,1,3-5.18A21.59,21.59,0,0,1,30.1,47ZM50,50.63A13.18,13.18,0,1,0,63.22,63.81,13.21,13.21,0,0,0,50,50.63ZM70,47A22,22,0,0,1,68,50a23.23,23.23,0,0,1,3,5.11,5.29,5.29,0,0,0,1.45-3.6A5.23,5.23,0,0,0,70,47Zm0,0A22,22,0,0,1,68,50a23.23,23.23,0,0,1,3,5.11,5.29,5.29,0,0,0,1.45-3.6A5.23,5.23,0,0,0,70,47ZM50,50.63A13.18,13.18,0,1,0,63.22,63.81,13.21,13.21,0,0,0,50,50.63ZM30.1,47a5.27,5.27,0,0,0-1,8.19,23.08,23.08,0,0,1,3-5.18A21.59,21.59,0,0,1,30.1,47Zm0,0a5.27,5.27,0,0,0-1,8.19,23.08,23.08,0,0,1,3-5.18A21.59,21.59,0,0,1,30.1,47ZM50,50.63A13.18,13.18,0,1,0,63.22,63.81,13.21,13.21,0,0,0,50,50.63ZM70,47A22,22,0,0,1,68,50a23.23,23.23,0,0,1,3,5.11,5.29,5.29,0,0,0,1.45-3.6A5.23,5.23,0,0,0,70,47Zm0,0A22,22,0,0,1,68,50a23.23,23.23,0,0,1,3,5.11,5.29,5.29,0,0,0,1.45-3.6A5.23,5.23,0,0,0,70,47ZM50,50.63A13.18,13.18,0,1,0,63.22,63.81,13.21,13.21,0,0,0,50,50.63ZM30.1,47a5.27,5.27,0,0,0-1,8.19,23.08,23.08,0,0,1,3-5.18A21.59,21.59,0,0,1,30.1,47Zm0,0a5.27,5.27,0,0,0-1,8.19,23.08,23.08,0,0,1,3-5.18A21.59,21.59,0,0,1,30.1,47ZM50,50.63A13.18,13.18,0,1,0,63.22,63.81,13.21,13.21,0,0,0,50,50.63ZM70,47A22,22,0,0,1,68,50a23.23,23.23,0,0,1,3,5.11,5.29,5.29,0,0,0,1.45-3.6A5.23,5.23,0,0,0,70,47Zm0,0A22,22,0,0,1,68,50a23.23,23.23,0,0,1,3,5.11,5.29,5.29,0,0,0,1.45-3.6A5.23,5.23,0,0,0,70,47ZM50,50.63A13.18,13.18,0,1,0,63.22,63.81,13.21,13.21,0,0,0,50,50.63ZM30.1,47a5.27,5.27,0,0,0-1,8.19,23.08,23.08,0,0,1,3-5.18A21.59,21.59,0,0,1,30.1,47Zm0,0a5.27,5.27,0,0,0-1,8.19,23.08,23.08,0,0,1,3-5.18A21.59,21.59,0,0,1,30.1,47ZM50,50.63A13.18,13.18,0,1,0,63.22,63.81,13.21,13.21,0,0,0,50,50.63ZM70,47A22,22,0,0,1,68,50a23.23,23.23,0,0,1,3,5.11,5.29,5.29,0,0,0,1.45-3.6A5.23,5.23,0,0,0,70,47Zm0,0A22,22,0,0,1,68,50a23.23,23.23,0,0,1,3,5.11,5.29,5.29,0,0,0,1.45-3.6A5.23,5.23,0,0,0,70,47ZM50,50.63A13.18,13.18,0,1,0,63.22,63.81,13.21,13.21,0,0,0,50,50.63ZM30.1,47a5.27,5.27,0,0,0-1,8.19,23.08,23.08,0,0,1,3-5.18A21.59,21.59,0,0,1,30.1,47Zm0,0a5.27,5.27,0,0,0-1,8.19,23.08,23.08,0,0,1,3-5.18A21.59,21.59,0,0,1,30.1,47ZM50,50.63A13.18,13.18,0,1,0,63.22,63.81,13.21,13.21,0,0,0,50,50.63ZM70,47A22,22,0,0,1,68,50a23.23,23.23,0,0,1,3,5.11,5.29,5.29,0,0,0,1.45-3.6A5.23,5.23,0,0,0,70,47Zm0,0A22,22,0,0,1,68,50a23.23,23.23,0,0,1,3,5.11,5.29,5.29,0,0,0,1.45-3.6A5.23,5.23,0,0,0,70,47ZM50,50.63A13.18,13.18,0,1,0,63.22,63.81,13.21,13.21,0,0,0,50,50.63ZM30.1,47a5.27,5.27,0,0,0-1,8.19,23.08,23.08,0,0,1,3-5.18A21.59,21.59,0,0,1,30.1,47Zm0,0a5.27,5.27,0,0,0-1,8.19,23.08,23.08,0,0,1,3-5.18A21.59,21.59,0,0,1,30.1,47ZM50,50.63A13.18,13.18,0,1,0,63.22,63.81,13.21,13.21,0,0,0,50,50.63ZM70,47A22,22,0,0,1,68,50a23.23,23.23,0,0,1,3,5.11,5.29,5.29,0,0,0,1.45-3.6A5.23,5.23,0,0,0,70,47Zm0,0A22,22,0,0,1,68,50a23.23,23.23,0,0,1,3,5.11,5.29,5.29,0,0,0,1.45-3.6A5.23,5.23,0,0,0,70,47ZM50,50.63A13.18,13.18,0,1,0,63.22,63.81,13.21,13.21,0,0,0,50,50.63ZM30.1,47a5.27,5.27,0,0,0-1,8.19,23.08,23.08,0,0,1,3-5.18A21.59,21.59,0,0,1,30.1,47Zm0,0a5.27,5.27,0,0,0-1,8.19,23.08,23.08,0,0,1,3-5.18A21.59,21.59,0,0,1,30.1,47ZM50,50.63A13.18,13.18,0,1,0,63.22,63.81,13.21,13.21,0,0,0,50,50.63ZM70,47A22,22,0,0,1,68,50a23.23,23.23,0,0,1,3,5.11,5.29,5.29,0,0,0,1.45-3.6A5.23,5.23,0,0,0,70,47Zm0,0A22,22,0,0,1,68,50a23.23,23.23,0,0,1,3,5.11,5.29,5.29,0,0,0,1.45-3.6A5.23,5.23,0,0,0,70,47ZM50,50.63A13.18,13.18,0,1,0,63.22,63.81,13.21,13.21,0,0,0,50,50.63ZM30.1,47a5.27,5.27,0,0,0-1,8.19,23.08,23.08,0,0,1,3-5.18A21.59,21.59,0,0,1,30.1,47Zm0,0a5.27,5.27,0,0,0-1,8.19,23.08,23.08,0,0,1,3-5.18A21.59,21.59,0,0,1,30.1,47ZM50,50.63A13.18,13.18,0,1,0,63.22,63.81,13.21,13.21,0,0,0,50,50.63ZM70,47A22,22,0,0,1,68,50a23.23,23.23,0,0,1,3,5.11,5.29,5.29,0,0,0,1.45-3.6A5.23,5.23,0,0,0,70,47Zm0,0A22,22,0,0,1,68,50a23.23,23.23,0,0,1,3,5.11,5.29,5.29,0,0,0,1.45-3.6A5.23,5.23,0,0,0,70,47ZM50,50.63A13.18,13.18,0,1,0,63.22,63.81,13.21,13.21,0,0,0,50,50.63ZM30.1,47a5.27,5.27,0,0,0-1,8.19,23.08,23.08,0,0,1,3-5.18A21.59,21.59,0,0,1,30.1,47Zm0,0a5.27,5.27,0,0,0-1,8.19,23.08,23.08,0,0,1,3-5.18A21.59,21.59,0,0,1,30.1,47ZM50,50.63A13.18,13.18,0,1,0,63.22,63.81,13.21,13.21,0,0,0,50,50.63ZM70,47A22,22,0,0,1,68,50a23.23,23.23,0,0,1,3,5.11,5.29,5.29,0,0,0,1.45-3.6A5.23,5.23,0,0,0,70,47Zm0,0A22,22,0,0,1,68,50a23.23,23.23,0,0,1,3,5.11,5.29,5.29,0,0,0,1.45-3.6A5.23,5.23,0,0,0,70,47ZM50,50.63A13.18,13.18,0,1,0,63.22,63.81,13.21,13.21,0,0,0,50,50.63ZM30.1,47a5.27,5.27,0,0,0-1,8.19,23.08,23.08,0,0,1,3-5.18A21.59,21.59,0,0,1,30.1,47Zm0,0a5.27,5.27,0,0,0-1,8.19,23.08,23.08,0,0,1,3-5.18A21.59,21.59,0,0,1,30.1,47ZM50,50.63A13.18,13.18,0,1,0,63.22,63.81,13.21,13.21,0,0,0,50,50.63ZM70,47A22,22,0,0,1,68,50a23.23,23.23,0,0,1,3,5.11,5.29,5.29,0,0,0,1.45-3.6A5.23,5.23,0,0,0,70,47Zm0,0A22,22,0,0,1,68,50a23.23,23.23,0,0,1,3,5.11,5.29,5.29,0,0,0,1.45-3.6A5.23,5.23,0,0,0,70,47ZM50,50.63A13.18,13.18,0,1,0,63.22,63.81,13.21,13.21,0,0,0,50,50.63ZM30.1,47a5.27,5.27,0,0,0-1,8.19,23.08,23.08,0,0,1,3-5.18A21.59,21.59,0,0,1,30.1,47Zm0,0a5.27,5.27,0,0,0-1,8.19,23.08,23.08,0,0,1,3-5.18A21.59,21.59,0,0,1,30.1,47ZM50,50.63A13.18,13.18,0,1,0,63.22,63.81,13.21,13.21,0,0,0,50,50.63ZM70,47A22,22,0,0,1,68,50a23.23,23.23,0,0,1,3,5.11,5.29,5.29,0,0,0,1.45-3.6A5.23,5.23,0,0,0,70,47Zm0,0A22,22,0,0,1,68,50a23.23,23.23,0,0,1,3,5.11,5.29,5.29,0,0,0,1.45-3.6A5.23,5.23,0,0,0,70,47ZM50,50.63A13.18,13.18,0,1,0,63.22,63.81,13.21,13.21,0,0,0,50,50.63ZM30.1,47a5.27,5.27,0,0,0-1,8.19,23.08,23.08,0,0,1,3-5.18A21.59,21.59,0,0,1,30.1,47Zm0,0a5.27,5.27,0,0,0-1,8.19,23.08,23.08,0,0,1,3-5.18A21.59,21.59,0,0,1,30.1,47ZM50,50.63A13.18,13.18,0,1,0,63.22,63.81,13.21,13.21,0,0,0,50,50.63Zm0,0A13.18,13.18,0,1,0,63.22,63.81,13.21,13.21,0,0,0,50,50.63ZM30.1,47a5.27,5.27,0,0,0-1,8.19,23.08,23.08,0,0,1,3-5.18A21.59,21.59,0,0,1,30.1,47Z"/><circle class="cls-1" cx="50.04" cy="63.81" r="13.18" transform="translate(-23.56 97.86) rotate(-76.72)"/><path class="cls-1" d="M63.22,36.19a13,13,0,0,1-2.45,7.64,22.65,22.65,0,0,0-21.45,0,13,13,0,0,1-2.46-7.64,13.18,13.18,0,0,1,26.36,0Z"/><path class="cls-1" d="M32.06,50a23.08,23.08,0,0,0-3,5.18,5.27,5.27,0,0,1,1-8.19A21.59,21.59,0,0,0,32.06,50Z"/><path class="cls-1" d="M72.44,51.5A5.29,5.29,0,0,1,71,55.1,23.23,23.23,0,0,0,68,50,22,22,0,0,0,70,47,5.23,5.23,0,0,1,72.44,51.5Z"/></svg>