<svg id="Layer_1" data-name="Layer 1" xmlns="http://www.w3.org/2000/svg" viewBox="0 0 100 100"><defs><style>.cls-1{fill:#fff;}</style></defs><path class="cls-1" d="M78.59,54.32c-5.14-6.81-9-11.12-13.62-14,.8-2.6,4.31-6.05,8.31-7.5-8.46-1.18-14.21-1.53-19.51-.28-1.29-2.38-1.24-7.32.56-11.15-6.82,5.14-11.12,9-14,13.59-2.58-.77-6.05-4.31-7.5-8.28-1.18,8.45-1.51,14.21-.26,19.51-2.4,1.27-7.32,1.22-11.17-.56,5.14,6.82,9,11.12,13.61,14-.8,2.6-4.31,6.05-8.3,7.5,8.45,1.18,14.21,1.53,19.51.28,1.28,2.39,1.24,7.32-.57,11.15,6.82-5.14,11.13-9,14-13.59,2.58.77,6,4.3,7.5,8.28,1.18-8.45,1.51-14.2.25-19.51C69.8,52.5,74.73,52.54,78.59,54.32ZM62,47.88A11.53,11.53,0,0,1,62.22,50,12.22,12.22,0,1,1,50,37.77a12,12,0,0,1,2.1.18A7,7,0,0,1,62,47.88Z"/><path class="cls-1" d="M61.83,43.19a4.85,4.85,0,0,1-.51,2.2,5,5,0,1,1-6.74-6.72,4.73,4.73,0,0,1,2.2-.52A5.05,5.05,0,0,1,61.83,43.19Z"/></svg>