<svg id="Layer_1" data-name="Layer 1" xmlns="http://www.w3.org/2000/svg" viewBox="0 0 100 100"><defs><style>.cls-1{fill:#fff;}</style></defs><path class="cls-1" d="M55.31,31,34.4,35.47,29.78,46.65l3.48,2.11.92.56,10.5,6.36,20.91-4.47.22-.53.93-2.24L70.22,40Zm9.81,16.44-1,2.22L64,50,45.23,53.82l-9.34-5.35-2-1.16-2-1.15L36,36.66l18.76-3.8,13.37,7.67Z"/><polygon class="cls-1" points="70.22 40.03 70.22 50.54 69.29 52.79 65.59 61.73 64.32 64.8 44.68 68.99 29.78 59.97 29.78 46.65 33.26 48.76 34.18 49.32 44.68 55.68 65.59 51.21 65.81 50.68 66.74 48.44 70.22 40.03"/></svg>