<svg id="Layer_1" data-name="Layer 1" xmlns="http://www.w3.org/2000/svg" viewBox="0 0 100 100"><defs><style>.cls-1{fill:#fff;}</style></defs><path class="cls-1" d="M55.43,14.68,34.06,19.25,29.33,30.68l3.55,2.15.95.57,10.73,6.5,21.38-4.56.23-.55,1-2.29,3.55-8.59Zm10,16.81-1,2.27-.16.37L45.12,38l-9.55-5.48L33.5,31.34l-2.05-1.17,4.24-9.71,19.19-3.88,13.67,7.83Z"/><polygon class="cls-1" points="70.67 23.91 70.67 34.65 69.72 36.95 65.94 46.09 64.64 49.23 44.56 53.52 29.33 44.29 29.33 30.68 32.88 32.83 33.83 33.4 44.56 39.9 65.94 35.34 66.17 34.79 67.11 32.5 70.67 23.91"/><polygon class="cls-1" points="70.67 39.81 70.67 50.55 69.72 52.85 65.94 61.99 64.64 65.13 44.56 69.42 29.33 60.19 29.33 46.58 32.88 48.73 33.83 49.3 44.56 55.8 65.94 51.24 66.17 50.7 67.11 48.4 70.67 39.81"/><polygon class="cls-1" points="70.67 55.71 70.67 66.46 69.72 68.75 65.94 77.89 64.64 81.03 44.56 85.32 29.33 76.09 29.33 62.48 32.88 64.63 33.83 65.21 44.56 71.7 65.94 67.14 66.17 66.6 67.11 64.3 70.67 55.71"/></svg>