<svg id="Layer_1" data-name="Layer 1" xmlns="http://www.w3.org/2000/svg" viewBox="0 0 100 100"><defs><style>.cls-1{fill:#fff;}</style></defs><circle class="cls-1" cx="59.99" cy="40.89" r="6.06"/><path class="cls-1" d="M80.13,78.22c-4.36,4.66-21.38-4.2-38-19.79s-26.59-32-22.23-36.65c3.85-4.11,17.59,2.32,32.2,14.61a8.92,8.92,0,0,0-1.18,4c-10.62-9-20.42-13.86-23-11.12C25,32.43,32.5,44.22,44.71,55.65S69.18,73.82,72.1,70.7C74.55,68.08,69.69,59.41,60.89,50a9.06,9.06,0,0,0,4-1.38C77.2,61.79,83.84,74.26,80.13,78.22Z"/></svg>