<svg id="Layer_1" data-name="Layer 1" xmlns="http://www.w3.org/2000/svg" viewBox="0 0 100 100"><defs><style>.cls-1{fill:#fff;}</style></defs><path class="cls-1" d="M32.53,22.63a29.54,29.54,0,0,0-5.79,10.85l-4.08-7.07a.15.15,0,0,1,0-.08,2.46,2.46,0,0,1,0-2.44,2.5,2.5,0,0,1,2.2-1.26Z"/><path class="cls-1" d="M45,17.58H24.22a7.15,7.15,0,0,0-6.34,10.56l.08.17L28.34,46.06a1,1,0,0,0,1.32.4,24.4,24.4,0,0,1-.3-4c0-11.46,7.07-21,16.44-23.25l.11-.21h0A1,1,0,0,0,45,17.58ZM29.22,42.51a23.57,23.57,0,0,0,.17,3l0,0-5.6-9.71-4.36-7.56h0a6.3,6.3,0,0,1,5.47-9.43H44.39C35.64,21.74,29.22,31.24,29.22,42.51Z"/><path class="cls-1" d="M67.09,42.51c0,11.15-7.66,20.2-17.1,20.2s-17.1-9.05-17.1-20.2S40.55,22.29,50,22.29,67.09,31.34,67.09,42.51Z"/><path class="cls-1" d="M50,70.82a20.31,20.31,0,0,0,4.21-.42L52,74.15a16.28,16.28,0,0,1-2.25,3,16,16,0,0,1-2.2-3.07s0,0,0-.08l-2.13-3.74A21.12,21.12,0,0,0,50,70.82Z"/><path class="cls-1" d="M65.72,57.84A19.59,19.59,0,0,1,50,66.27a19.56,19.56,0,0,1-15.74-8.45,1,1,0,0,0-.76,1.52l10.16,18.1c4.08,6.66,8.26,6.66,12.32-.15l10.52-18A1,1,0,0,0,65.72,57.84ZM55.2,76.12c-2.09,3.39-3.8,5.1-5.47,5.1a3.75,3.75,0,0,1-2.58-1.3,19.46,19.46,0,0,1-2.86-3.87L40,68.45,34.59,59A19.47,19.47,0,0,0,50,67.06,19.42,19.42,0,0,0,65.36,59Z"/><path class="cls-1" d="M77.32,23.89a2.44,2.44,0,0,1,.06,2.44l-.06.08-4.08,7.07a29.69,29.69,0,0,0-5.79-10.85h7.69A2.43,2.43,0,0,1,77.32,23.89Z"/><path class="cls-1" d="M75.76,17.58H55a1,1,0,0,0-.93,1.47h0l.12.21c9.36,2.22,16.44,11.79,16.44,23.25a24.4,24.4,0,0,1-.31,4,1,1,0,0,0,1.32-.4L82,28.31l.1-.17A7.15,7.15,0,0,0,75.76,17.58ZM80.6,28.29h0l-4.35,7.56-5.62,9.71a28.19,28.19,0,0,0,.15-3.05c0-11.27-6.4-20.77-15.14-23.65H75.14A6.3,6.3,0,0,1,80.6,28.29Z"/><path class="cls-1" d="M67.09,42.51c0,11.15-7.66,20.2-17.1,20.2s-17.1-9.05-17.1-20.2S40.55,22.29,50,22.29,67.09,31.34,67.09,42.51Z"/><path class="cls-1" d="M32.53,22.63a29.54,29.54,0,0,0-5.79,10.85l-4.08-7.07a.15.15,0,0,1,0-.08,2.46,2.46,0,0,1,0-2.44,2.5,2.5,0,0,1,2.2-1.26Z"/><path class="cls-1" d="M77.38,26.33l-.06.08-4.08,7.07a29.69,29.69,0,0,0-5.79-10.85h7.69a2.53,2.53,0,0,1,2.24,3.7Z"/><path class="cls-1" d="M54.2,70.4,52,74.15a16.28,16.28,0,0,1-2.25,3,16,16,0,0,1-2.2-3.07s0,0,0-.08l-2.13-3.74a21.12,21.12,0,0,0,4.63.51A20.31,20.31,0,0,0,54.2,70.4Z"/></svg>