<svg id="Layer_1" data-name="Layer 1" xmlns="http://www.w3.org/2000/svg" viewBox="0 0 100 100"><defs><style>.cls-1{fill:none;stroke:#fff;stroke-miterlimit:10;stroke-width:2px;}.cls-2{fill:#fff;}</style></defs><path class="cls-1" d="M69.62,34.46A23.21,23.21,0,0,0,26.79,46.84c0,.34,0,.67,0,1A23.18,23.18,0,0,0,45.76,69.67a23.82,23.82,0,0,0,4.25.39,23.49,23.49,0,0,0,4.22-.39A23.18,23.18,0,0,0,73.17,47.86c0-.33,0-.68,0-1A23,23,0,0,0,69.62,34.46ZM50,52.93A12.07,12.07,0,0,1,37.92,40.85a10.84,10.84,0,0,1,.16-2,33,33,0,0,1,23.84,0,10.84,10.84,0,0,1,.16,2A12.07,12.07,0,0,1,50,52.93Z"/><path class="cls-2" d="M78.2,37.78C71.71,34.26,61.49,32,50,32s-21.7,2.26-28.19,5.78a3.55,3.55,0,0,0-.39.2l3.82,8.71L39.11,56.81,50,77.84l10.89-21L74.77,46.7,78.59,38A3.55,3.55,0,0,0,78.2,37.78ZM50,52.93A12.07,12.07,0,0,1,37.92,40.85a10.84,10.84,0,0,1,.16-2,33,33,0,0,1,23.84,0,10.84,10.84,0,0,1,.16,2A12.07,12.07,0,0,1,50,52.93Z"/></svg>