<svg id="Layer_1" data-name="Layer 1" xmlns="http://www.w3.org/2000/svg" viewBox="0 0 100 100"><defs><style>.cls-1{fill:#fff;}</style></defs><path class="cls-1" d="M47.71,85.3A31.09,31.09,0,0,1,23.08,40.84l4.25.75,1.34,8.23a27.83,27.83,0,0,0,19,35.48Z"/><path class="cls-1" d="M81.93,51A27.82,27.82,0,0,0,40,35.15l-1.17-.21-1.38-8.46A31.08,31.08,0,0,1,81.93,51Z"/><path class="cls-1" d="M36.56,36.24,33.06,14.7l-3.5,21.54-11.49,2,11.49,2,3.5,21.54,3.5-21.54,11.48-2Zm-3.5,8.41-2.15-6.28,2.15-6.48,2.15,6.48Z"/></svg>