<svg id="Layer_1" data-name="Layer 1" xmlns="http://www.w3.org/2000/svg" viewBox="0 0 100 100"><defs><style>.cls-1,.cls-2{fill:#fff;}.cls-2{stroke:#fff;stroke-miterlimit:10;stroke-width:0.75px;}</style></defs><g id="Hacan"><path class="cls-1" d="M72.27,22.43c-4.94.14-11.33,5-15.7,10.38-4.51,5.6-6,11-3.23,14.15,1.6,1.8,6.54-1.18,6.71-12.31a.16.16,0,0,0-.31,0c-1,3.19-2.39,6.38-3.45,6.86-.27.12-.39,0-.39-.3C55.91,38.16,65.81,25,72.27,22.43Z"/><path class="cls-1" d="M22.46,46.61c2.58,4.21,10,7.33,16.84,8.4,7.1,1.11,12.57-.32,13.87-4.28.75-2.28-4.3-5.07-14,.35a.16.16,0,0,0,.12.29c3.27-.73,6.72-1.12,7.66-.44.25.17.2.33-.06.48C44.26,52.91,27.93,50.9,22.46,46.61Z"/><path class="cls-1" d="M68.16,77.57c2.35-4.35,1.36-12.3-1.14-18.79-2.6-6.71-6.57-10.72-10.64-9.87-2.35.49-2.24,6.26,7.31,12a.15.15,0,0,0,.19-.24c-2.27-2.47-4.33-5.26-4.22-6.42,0-.3.19-.34.45-.19C62.72,55.53,69.14,70.68,68.16,77.57Z"/><path class="cls-1" d="M66.94,64.78a.07.07,0,0,0,.13,0c-.65-4.68-4.13-16-10.28-15.2-.59.07-.88.65-.88,1.46a6.5,6.5,0,0,0,4.26,5.73c.07,0,.11-.05.07-.11-.84-1.17-1.23-2.11-.83-3a.64.64,0,0,1,.51-.3C61.4,53.32,64.38,59.53,66.94,64.78Z"/><path class="cls-1" d="M34.15,51.94a.07.07,0,0,0,0,.13c4.37,1.78,15.93,4.44,18.3-1.3.23-.54-.13-1.09-.83-1.5a6.51,6.51,0,0,0-7.09.83c-.05,0,0,.12.06.12,1.43-.15,2.45,0,3,.76a.65.65,0,0,1,0,.59C46.84,52.88,40,52.35,34.15,51.94Z"/><path class="cls-1" d="M61.8,29.88a.06.06,0,0,0-.09-.09c-3.73,2.9-11.8,11.57-8,16.5.36.47,1,.43,1.71,0a6.53,6.53,0,0,0,2.83-6.56.07.07,0,0,0-.13,0C57.51,41.07,56.88,41.88,56,42a.61.61,0,0,1-.51-.29C54.65,40.41,58.54,34.72,61.8,29.88Z"/><circle class="cls-2" cx="41.87" cy="38.33" r="7.67"/><circle class="cls-2" cx="51.36" cy="64.75" r="7.67"/><circle class="cls-2" cx="69.5" cy="43.32" r="7.67"/></g></svg>