<svg id="Layer_1" data-name="Layer 1" xmlns="http://www.w3.org/2000/svg" viewBox="0 0 100 100"><defs><style>.cls-1{fill:#fff;}</style></defs><path class="cls-1" d="M81.57,20.54,56.86,35.38a9.11,9.11,0,0,0-13.71,0L18.44,20.54H40.08v3H59.92v-3Z"/><path class="cls-1" d="M48.41,50.33,47.9,79.46,37.08,60.72l2.63-1.53L29.79,42l-2.63,1.51L16.34,24.79l25,13.85a9.39,9.39,0,0,0-.41,2.73A9.11,9.11,0,0,0,48.41,50.33Z"/><path class="cls-1" d="M83.66,24.79,72.84,43.53,70.21,42,60.29,59.19l2.63,1.53L52.1,79.46l-.51-29.13a9.1,9.1,0,0,0,7.51-9,8.76,8.76,0,0,0-.42-2.73Z"/><circle class="cls-1" cx="50" cy="41.37" r="6.32"/></svg>