<svg id="Layer_1" data-name="Layer 1" xmlns="http://www.w3.org/2000/svg" viewBox="0 0 100 100"><defs><style>.cls-1{fill:#fff;}</style></defs><circle class="cls-1" cx="50" cy="50" r="6.11"/><path class="cls-1" d="M79.43,48.79c0-.4,0-.8-.07-1.2s-.07-.79-.12-1.18-.1-.79-.17-1.17H75.83a26,26,0,0,0-4.2-10.12,26.41,26.41,0,0,0-6.75-6.75,26,26,0,0,0-10.12-4.2V20.93c-.38-.07-.77-.12-1.17-.17s-.78-.09-1.18-.12-.8-.06-1.2-.07-.8,0-1.21,0-.81,0-1.21,0h-.3l-.9.06h0c-.38,0-.78.07-1.16.12s-.76.1-1.14.16h0v3.24a26,26,0,0,0-10.12,4.2,26.33,26.33,0,0,0-6.74,6.74,26,26,0,0,0-4.21,10.13H20.93c-.07.38-.12.77-.17,1.17s-.09.78-.12,1.18-.06.8-.07,1.2,0,.8,0,1.21,0,.81,0,1.21a2.91,2.91,0,0,0,0,.3l.06.9v0c0,.38.07.78.12,1.16s.1.76.16,1.14c0,0,0,0,0,0h3.23a25.9,25.9,0,0,0,4.21,10.12,26.33,26.33,0,0,0,6.74,6.74,25.9,25.9,0,0,0,10.12,4.21v3.23h0c.38.06.76.12,1.14.16s.78.09,1.16.12h0l.9.06h.3c.4,0,.8,0,1.21,0s.81,0,1.21,0h.3l.9-.06c.79-.07,1.58-.16,2.35-.29V75.84a26,26,0,0,0,10.13-4.21,26.33,26.33,0,0,0,6.74-6.74,26,26,0,0,0,4.2-10.12h3.24s0,0,0,0c.06-.38.12-.76.16-1.14s.09-.78.12-1.16v0c0-.3,0-.59.06-.9a2.91,2.91,0,0,0,0-.3c0-.4,0-.8,0-1.21S79.45,49.19,79.43,48.79ZM67,60.23l-3-3A15.67,15.67,0,0,1,57.25,64l3,3a19.79,19.79,0,0,1-20.46,0l3-3A15.77,15.77,0,0,1,36,57.25l-3,3a19.79,19.79,0,0,1,0-20.46l3,3A15.67,15.67,0,0,1,42.76,36l-3-3a19.79,19.79,0,0,1,20.46,0l-3,3A15.56,15.56,0,0,1,64,42.76l3-3a19.79,19.79,0,0,1,0,20.46Z"/></svg>