<svg id="Layer_1" data-name="Layer 1" xmlns="http://www.w3.org/2000/svg" viewBox="0 0 100 100"><defs><style>.cls-1{fill:#fff;}</style></defs><g id="path3797"><path class="cls-1" d="M64.05,25.22c-5.56,0-10.39,5.11-12.93,12.67-.23,0-.44,0-.67,0h0c-.34,0-.69,0-1,.06-2.59-7.64-7.55-12.81-13.23-12.79C27.86,25.14,21.1,36.28,21.11,50s6.76,24.87,15.11,24.86c5.67,0,10.61-5.17,13.19-12.8.33,0,.7.06,1,.06h0a4.68,4.68,0,0,0,.64,0c2.53,7.56,7.38,12.68,12.94,12.68,8.19,0,14.84-11.09,14.84-24.77S72.24,25.22,64.05,25.22ZM38.24,69.65c-6,0-10.77-8.8-10.77-19.64s4.82-19.67,10.77-19.67c3.61,0,6.81,3.24,8.75,8.19-4.13,1.64-7.12,6.18-7.12,11.5a13,13,0,0,0,3.06,8.51A10.27,10.27,0,0,0,47,61.47C45,66.42,41.85,69.65,38.24,69.65Zm12.27-9.51H50a7.27,7.27,0,0,1-2.34-.55,8.63,8.63,0,0,1-3.22-2.35A11,11,0,0,1,41.87,50c0-4.42,2.42-8.2,5.79-9.58A7.07,7.07,0,0,1,50,39.88a3.39,3.39,0,0,1,.44,0h.07a7.83,7.83,0,0,1,4.85,1.81,8.86,8.86,0,0,1,1.11,1.1A11,11,0,0,1,59,50v0a10.76,10.76,0,0,1-3.69,8.32A7.67,7.67,0,0,1,50.51,60.14Zm13.06,9c-3.21,0-6-3.48-7.66-8.75A12.54,12.54,0,0,0,61,50v0a13,13,0,0,0-3-8.52,11,11,0,0,0-2.07-1.87c1.62-5.25,4.44-8.74,7.63-8.74,5,0,9.13,8.55,9.13,19.11v0C72.68,60.57,68.61,69.15,63.57,69.15Z"/></g></svg>