<svg id="Layer_1" data-name="Layer 1" xmlns="http://www.w3.org/2000/svg" viewBox="0 0 100 100"><defs><style>.cls-1{fill:#fff;}</style></defs><g id="L1Z1X"><path class="cls-1" d="M64.74,34.3V24.81H29.82V52.14H16.53V64H36V75.19H70.19V46.32H83.47v-12ZM42.36,28.48h19.5v6.09H48.53v27H42.36ZM19.45,61.41V55.77H33V28.48h7V61.41ZM58.57,71.52h-20v-6.8h13v-28h7ZM80.76,43.43H67.52V71.52h-6V36.71H80.76Z"/><path class="cls-1" d="M64.74,34.3V24.81H29.82V52.14H16.53V64H36V75.19H70.19V46.32H83.47v-12ZM42.36,28.48h19.5v6.09H48.53v27H42.36ZM19.45,61.41V55.77H33V28.48h7V61.41ZM58.57,71.52h-20v-6.8h13v-28h7ZM80.76,43.43H67.52V71.52h-6V36.71H80.76Z"/></g></svg>