<svg id="Layer_1" data-name="Layer 1" xmlns="http://www.w3.org/2000/svg" viewBox="0 0 100 100"><defs><style>.cls-1{fill:none;stroke:#fff;stroke-miterlimit:10;stroke-width:0.46px;}.cls-2{fill:#fff;}</style></defs><path class="cls-1" d="M74.48,56.67,46.67,84.48a.44.44,0,0,1-.62,0L30.61,69a.43.43,0,0,1,0-.61L40,59a.43.43,0,0,0,0-.61L25.52,44a.44.44,0,0,1,0-.62L53.33,15.52a.44.44,0,0,1,.62,0L69.39,31a.43.43,0,0,1,0,.61L60,41a.43.43,0,0,0,0,.61L74.48,56.05A.44.44,0,0,1,74.48,56.67Z"/><rect class="cls-1" x="35.24" y="33.99" width="24.43" height="6.93" rx="0.43" transform="translate(-12.58 44.53) rotate(-45)"/><path class="cls-1" d="M40.77,59.08H64.32a.44.44,0,0,1,.44.44v6.06a.43.43,0,0,1-.43.43H40.77a.43.43,0,0,1-.43-.43V59.52a.43.43,0,0,1,.43-.43Z" transform="translate(-28.84 55.47) rotate(-45)"/><path class="cls-2" d="M68.1,31.24l-4,4.08-9.79-9.79a.88.88,0,0,0-1.27,0L35.57,43,31.5,39,53.64,16.83Z"/><path class="cls-2" d="M63.42,35.93,41.29,58.1,26.81,43.66l4-4.08,9.79,9.8a.89.89,0,0,0,1.26,0L59.36,31.92Z"/><path class="cls-2" d="M73.19,56.33l-4,4.08-9.79-9.79a.88.88,0,0,0-.63-.26.9.9,0,0,0-.64.26L40.67,68.1l-4.08-4L58.74,41.92Z"/><path class="cls-2" d="M68.51,61,46.38,83.19,31.9,68.75l4-4.07,9.79,9.79a.88.88,0,0,0,.63.26.9.9,0,0,0,.64-.26L64.45,57Z"/></svg>