<svg id="Layer_1" data-name="Layer 1" xmlns="http://www.w3.org/2000/svg" viewBox="0 0 100 100"><defs><style>.cls-1{fill:#fff;}</style></defs><g id="Mentak_Broken_" data-name="Mentak [Broken]"><polygon class="cls-1" points="50.15 60.3 31.27 65.37 44.81 52.07 50.15 31.13 55.08 52.07 68.73 65.37 50.15 60.3"/><polygon class="cls-1" points="68.73 65.37 50.15 60.3 31.27 65.37 44.81 52.07 50.15 31.13 55.08 52.07 68.73 65.37"/><path class="cls-1" d="M67.55,46.24,50.14,24.81,32.6,46l-.05.11L23.36,70.65l26.78,4.54,26.5-4.69Zm-17.43,15L43.94,70.4h4.29v3L25.36,69.49l8.37-22.37,1.81,1-2.11,3,10.43.35-4.81-9.35L37,45.5l-1.43-.79L50.13,27.13l14.29,17.6L63,45.5,61,42.07l-4.81,9.35,10.41-.35-2.09-3,1.84-1,8.34,22.25-22.57,4,0-3.15h3.49Z"/></g></svg>