<svg id="Layer_1" data-name="Layer 1" xmlns="http://www.w3.org/2000/svg" viewBox="0 0 100 100"><defs><style>.cls-1{fill:#fff;}</style></defs><path id="Muaat_Broken_" data-name="Muaat [Broken]" class="cls-1" d="M40.52,62.22c0-8.1,20.9-19.41,9.13-23.08C55.38,39,59.35,43.88,59.94,50,61.33,64.55,40.09,64.52,49.8,73.53c-4.43-1.76-9.28-5.65-9.28-11.31m8.21-46.86c-2.71,0-4.68,2.06-4.79,7,3.18-3.82,5.4-2,6-.39,2.3,6.22-20.52,19.7-20.16,33.66C30,65.73,39.62,72.31,42.69,74.3,39.91,85.61,55.15,84.61,55.15,84.61c-6.52-9.15,15.08-8.53,15.08-26.82,0-7.85-4.41-9.77-8.81-12.46,10.34-11.75-4.33-29.87-12.56-30ZM47.12,57.75c-1.57,2-.6,4.9.84,6.31.08-3.94,5-6.27,6.42-8.16,1.72-2.37.19-7.4-1.71-7.7,1.71,4.16-2.58,5.68-5.55,9.55"/></svg>