<svg id="Layer_1" data-name="Layer 1" xmlns="http://www.w3.org/2000/svg" viewBox="0 0 100 100"><defs><style>.cls-1{fill:#fff;}</style></defs><g id="Naalu"><path class="cls-1" d="M43.45,62.45l.13,0-.09,6.33c-15.42-3.32-23.4,4.53-23.4,4.53s-.66-7.57,3.06-13.43c-9.57-7-8-17.68-.26-21.67-5.17-5.53-2.53-11-2.53-11,8.89,3.39,15.53,6.14,23.26,2l-.1,7.9-.15,0a37.76,37.76,0,0,0-17,7.62c-1,.78-2.74,2.37-3.41,3.08l-.36.38-.94,1,.9,1,.8.92a35.75,35.75,0,0,0,8.29,6.91A34.13,34.13,0,0,0,43.45,62.45Z"/><path class="cls-1" d="M77.38,59.64a13.3,13.3,0,0,1,2.93,12.89c-13.83-8.77-22.73-3.32-22.73-3.32l.18-7.1a1.52,1.52,0,0,0,.21,0,36.45,36.45,0,0,0,15.09-7.3c.68-.55,1.84-1.63,2.7-2.46,2-1.9,2.19-2.2,2.19-2.9,0-1.59-4.76-5.57-4.81-5.6a34.36,34.36,0,0,0-15.65-6.73h-.07l.29-7.22c10.63,4.53,22.86-3.19,22.86-3.19a16.14,16.14,0,0,1-2.79,12.1C83.63,42.76,87.08,52.05,77.38,59.64Z"/><path class="cls-1" d="M72.21,45a32.77,32.77,0,0,0-15-6.41c-.77-.14-1.54-.25-2.33-.35A41.16,41.16,0,0,0,50.54,38a40.55,40.55,0,0,0-4.3.18c-.88.1-1.75.23-2.6.38a36.19,36.19,0,0,0-16.37,7.31c-.89.73-2.63,2.29-3.27,2.94l-.35.37.8.94a35.22,35.22,0,0,0,7.93,6.61A33.11,33.11,0,0,0,43.72,61c1.06.19,2.16.35,3.3.45a11,11,0,0,0,1.36,0c1.91,0,5-.11,5.74-.2,1.21-.17,2.38-.4,3.52-.66a35,35,0,0,0,14.48-7,43,43,0,0,0,4.33-4.18C76.45,49.05,73.69,46.16,72.21,45ZM50,54.07c-4.56,0-8.87-1.84-13.14-4.79C40,45.6,44.8,44.14,49.53,44.14c5.65,0,11.17,2.09,13.52,5C58.39,52.59,54.09,54.07,50,54.07Z"/></g></svg>