<svg id="Layer_1" data-name="Layer 1" xmlns="http://www.w3.org/2000/svg" viewBox="0 0 100 100"><defs><style>.cls-1{fill:#fff;}</style></defs><g id="Nekro"><path class="cls-1" d="M44.81,84.64c8.8-14.35,6.52-24.29,6.52-24.29S75.78,51,77.08,45.92c.75-2.9-1-8.56-7.9-10.59,2.61,11.35-7,12.22-12.31,9.86-3.48,5.6-6.25,7.09-6.25,7.09-1.49-12.63-6.25-32.36-15.27-32.36-2.16,0-5.21,1.31-6.19,6,9.56-1,8.91,9,6.36,14.67,1.1,1.24,8.58,7,7.82,11.74-1.69-2.5-4.51-6.08-9.94-5.54,7,3-.17,12.88-16.14,13.53,10.11,7,24.39,2.93,24.39,2.93S47.74,70,44.81,84.64Z"/><path class="cls-1" d="M75,49.72c-6.8,4.39-23.42,10.72-23.42,10.72s19.14,2.72,26.15,5.16c0,0,1.28-6.42,5-7.94C79.33,56.55,75,49.72,75,49.72Z"/><path class="cls-1" d="M43.69,25c3.94,7.08,6.79,23.8,6.79,23.8s6.8-18.34,9.69-25.18c0,0-5.74-2.59-8.19-8.24A26.57,26.57,0,0,1,43.69,25Z"/></g></svg>