<svg id="Layer_1" data-name="Layer 1" xmlns="http://www.w3.org/2000/svg" viewBox="0 0 100 100"><defs><style>.cls-1{fill:#fff;}</style></defs><path class="cls-1" d="M32.42,58.1A3.79,3.79,0,0,1,31.12,61a4,4,0,0,1-1.09.65,3.65,3.65,0,0,1-1.38.27,3.77,3.77,0,0,1-1.86-7.06,3.84,3.84,0,0,1,1.86-.49A3.77,3.77,0,0,1,32.42,58.1Z"/><path class="cls-1" d="M72.26,42.41h-.17a22.82,22.82,0,0,0-2.85-6.59l.61-.39c-.42-.65-.87-1.31-1.35-1.91a3.63,3.63,0,0,0,.66-2.06,3.54,3.54,0,0,0-5.72-2.8A24,24,0,0,0,55.63,25a22.42,22.42,0,0,0-2.85-.55,3.54,3.54,0,0,0-7,.1,23.82,23.82,0,0,0-3.59.88l.23.67a23.31,23.31,0,0,0-10.85,7.54L31,33.21a23.9,23.9,0,0,0-5.26,14.87v.08A24,24,0,0,0,26.21,53a5.68,5.68,0,0,0,2.44,10.82,5.43,5.43,0,0,0,2.44-.56c.47.59,1,1.12,1.49,1.66l.51-.5a23.49,23.49,0,0,0,5.58,4.2l-.33.63a24,24,0,0,0,3.35,1.48,7.94,7.94,0,0,0,15.87,0,24.64,24.64,0,0,0,2.89-1.24l-.32-.64A23.35,23.35,0,0,0,68.9,61l.59.38a24,24,0,0,0,1.74-3,23.37,23.37,0,0,0,1.69-4.87c.12-.52.22-1.07.31-1.6a4.79,4.79,0,0,0-1-9.48ZM63.65,30.62a2.11,2.11,0,0,1,1-1.05,2,2,0,0,1,1-.23,2.12,2.12,0,0,1,2.13,2.12,2,2,0,0,1-.2.89,2.19,2.19,0,0,1-1,1,2,2,0,0,1-.92.21,2.14,2.14,0,0,1-2-3ZM47.23,24.38a2.12,2.12,0,0,1,4.06-.06,1.91,1.91,0,0,1,.11.64,2,2,0,0,1-.16.78,2.1,2.1,0,0,1-2,1.35,2.15,2.15,0,0,1-2-1.29,2.1,2.1,0,0,1-.17-.84A1.81,1.81,0,0,1,47.23,24.38Zm-17,37.7a4.27,4.27,0,0,1-3.66-7.7,3.89,3.89,0,0,1,1.35-.48,3.67,3.67,0,0,1,.75-.07,4.28,4.28,0,0,1,2.79,7.51A4,4,0,0,1,30.21,62.08Zm25.91,9.08a6.52,6.52,0,0,1-13,0c0-.18,0-.33,0-.5a6.52,6.52,0,1,1,13,0C56.14,70.83,56.13,71,56.12,71.16ZM70.58,58.05l-.65-.31a20.21,20.21,0,0,1-1.63,2.88,22.41,22.41,0,0,1-8.5,7.55,18.56,18.56,0,0,1-2.37,1,7.94,7.94,0,0,0-15.61,0A24.53,24.53,0,0,1,39,68a23,23,0,0,1-5.41-4.07c-.45-.47-.88-.94-1.29-1.43a5.69,5.69,0,0,0-3.66-10.05,5.39,5.39,0,0,0-1.07.11,22.46,22.46,0,0,1-.42-4.36v-.07h-.72a23.23,23.23,0,0,1,2-9.28l.66.3A22.57,22.57,0,0,1,42.61,26.8,23.67,23.67,0,0,1,45.88,26a3.54,3.54,0,0,0,6.8-.09,19.77,19.77,0,0,1,2.59.51l.18-.7a23.11,23.11,0,0,1,7.46,3.45,3.61,3.61,0,0,0-.84,2.3A3.56,3.56,0,0,0,65.61,35a3.38,3.38,0,0,0,1.83-.53,18.17,18.17,0,0,1,1.19,1.72,22,22,0,0,1,2.74,6.29,4.79,4.79,0,0,0,.4,9.48c-.07.39-.16.81-.25,1.2l.7.17A22.45,22.45,0,0,1,70.58,58.05Zm2.84-7.69a3.41,3.41,0,0,1-1.16.21,1.51,1.51,0,0,1-.3,0,3.37,3.37,0,0,1-3.08-3.35,3.41,3.41,0,0,1,2.8-3.34,5.46,5.46,0,0,1,.58,0,3.74,3.74,0,0,1,.89.11,3.4,3.4,0,0,1,2.49,3.27A3.36,3.36,0,0,1,73.42,50.36Z"/><path class="cls-1" d="M50.9,25a1.52,1.52,0,0,1-.12.59,1.62,1.62,0,0,1-3,.05,1.7,1.7,0,0,1-.13-.64,1.56,1.56,0,0,1,.06-.44,1.63,1.63,0,0,1,3.12-.05A1.57,1.57,0,0,1,50.9,25Z"/><path class="cls-1" d="M55.64,70.66a3.46,3.46,0,0,1,0,.45,6,6,0,0,1-12,0c0-.15,0-.31,0-.45a6.44,6.44,0,0,1,.07-.9,6,6,0,0,1,11.9,0A5.21,5.21,0,0,1,55.64,70.66Z"/><path class="cls-1" d="M67.24,31.46a1.68,1.68,0,0,1-.15.69,1.62,1.62,0,0,1-.78.77,1.4,1.4,0,0,1-.7.17A1.64,1.64,0,0,1,64,31.46a1.7,1.7,0,0,1,.13-.64,1.56,1.56,0,0,1,.76-.8,1.59,1.59,0,0,1,.74-.18A1.62,1.62,0,0,1,67.24,31.46Z"/><path class="cls-1" d="M75.14,47.2a2.89,2.89,0,0,1-1.89,2.7,2.75,2.75,0,0,1-1,.17,1.06,1.06,0,0,1-.25,0,2.87,2.87,0,0,1-.25-5.69,4.38,4.38,0,0,1,.5,0,3.29,3.29,0,0,1,.76.09A2.92,2.92,0,0,1,75.14,47.2Z"/><path class="cls-1" d="M49.4,58.88a14.3,14.3,0,0,1-3.84-.54,13.68,13.68,0,0,0,7.68,0A14.3,14.3,0,0,1,49.4,58.88ZM63.13,45.16a13.22,13.22,0,0,0-.5-3.64,13.61,13.61,0,0,1,.49,3.64A13.84,13.84,0,0,1,62.58,49,13.48,13.48,0,0,0,63.13,45.16Z"/><path class="cls-1" d="M62.63,41.52a12.94,12.94,0,0,0-.86-2.3,13.56,13.56,0,0,0-2.21-3.29c-.15-.16-.3-.33-.46-.47-.31-.31-.63-.61-1-.89s-.7-.54-1.06-.79a13.94,13.94,0,0,0-1.72-1c-.2-.09-.4-.19-.61-.27a13.63,13.63,0,0,0-10.68,0c-.21.08-.41.18-.61.27a13.94,13.94,0,0,0-1.72,1c-.36.25-.72.51-1.06.79s-.66.58-1,.89a13.7,13.7,0,0,0,0,19.39c.15.17.31.31.48.47a13.26,13.26,0,0,0,3.27,2.21,15.32,15.32,0,0,0,2.11.81,13.92,13.92,0,0,0,7.68,0,15.32,15.32,0,0,0,2.11-.81,13.31,13.31,0,0,0,3.28-2.21q.48-.45.93-.93a13.87,13.87,0,0,0,3-5.4,13.84,13.84,0,0,0,.54-3.83A13.61,13.61,0,0,0,62.63,41.52ZM49.4,57.3A12.15,12.15,0,1,1,61.55,45.16,12.15,12.15,0,0,1,49.4,57.3Z"/><circle class="cls-1" cx="49.4" cy="45.16" r="11.65" transform="translate(-3.08 86.68) rotate(-80.78)"/></svg>