<svg id="Layer_1" data-name="Layer 1" xmlns="http://www.w3.org/2000/svg" viewBox="0 0 100 100"><defs><style>.cls-1{fill:#fff;}</style></defs><path class="cls-1" d="M58,30.6H42L30.6,42V58L42,69.4H58L69.4,58V42ZM48.2,66H40.75V37.4A3.58,3.58,0,0,1,44.47,34H48.2Zm11-3.42A3.58,3.58,0,0,1,55.53,66H51.8V34h7.45ZM58,30.6H42L30.6,42V58L42,69.4H58L69.4,58V42ZM48.2,66H40.75V37.4A3.58,3.58,0,0,1,44.47,34H48.2Zm11-3.42A3.58,3.58,0,0,1,55.53,66H51.8V34h7.45ZM58,30.6H42L30.6,42V58L42,69.4H58L69.4,58V42ZM48.2,66H40.75V37.4A3.58,3.58,0,0,1,44.47,34H48.2Zm11-3.42A3.58,3.58,0,0,1,55.53,66H51.8V34h7.45ZM58,30.6H42L30.6,42V58L42,69.4H58L69.4,58V42ZM48.2,66H40.75V37.4A3.58,3.58,0,0,1,44.47,34H48.2Zm11-3.42A3.58,3.58,0,0,1,55.53,66H51.8V34h7.45Zm3.32-42.95H37.43L19.65,37.43V62.57L37.43,80.35H62.57L80.35,62.57V37.43ZM74.46,60.13,60.13,74.46H39.87L25.54,60.13V39.87L39.87,25.54H60.13L74.46,39.87ZM42,30.6,30.6,42V58L42,69.4H58L69.4,58V42L58,30.6ZM48.2,66H40.75V37.4A3.58,3.58,0,0,1,44.47,34H48.2Zm11-3.42A3.58,3.58,0,0,1,55.53,66H51.8V34h7.45ZM58,30.6H42L30.6,42V58L42,69.4H58L69.4,58V42ZM48.2,66H40.75V37.4A3.58,3.58,0,0,1,44.47,34H48.2Zm11-3.42A3.58,3.58,0,0,1,55.53,66H51.8V34h7.45ZM58,30.6H42L30.6,42V58L42,69.4H58L69.4,58V42ZM48.2,66H40.75V37.4A3.58,3.58,0,0,1,44.47,34H48.2Zm11-3.42A3.58,3.58,0,0,1,55.53,66H51.8V34h7.45Z"/></svg>