<svg id="Layer_1" data-name="Layer 1" xmlns="http://www.w3.org/2000/svg" viewBox="0 0 100 100"><defs><style>.cls-1{fill:#dd5858;}</style></defs><path class="cls-1" d="M62.57,19.65H37.43L19.64,37.43V62.57L37.43,80.35H62.57L80.36,62.57V37.43ZM74.45,60.13,60.13,74.46H39.87L25.54,60.13V39.87L39.87,25.54H60.13L74.45,39.87ZM42,30.6,30.6,42V58L42,69.4H58L69.39,58V42L58,30.6ZM59.57,62A15.35,15.35,0,0,1,37.2,58.45h7.12a10.21,10.21,0,0,0,10.76.36l-7.43-5.23H35.08a15.83,15.83,0,0,1,0-7.16h6.36l19.82,14A14,14,0,0,1,59.57,62ZM62.8,41.55H55.67a10.21,10.21,0,0,0-10.55-.48l7.58,5.35H64.9a15.47,15.47,0,0,1,0,7.16h-6l-20-14.13a15,15,0,0,1,1.72-1.56,15.34,15.34,0,0,1,22.2,3.66Z"/></svg>