<svg id="Layer_1" data-name="Layer 1" xmlns="http://www.w3.org/2000/svg" viewBox="0 0 100 100"><defs><style>.cls-1{fill:#fff;}</style></defs><path class="cls-1" d="M34.52,65.6h-7.1a1.75,1.75,0,0,1-1.75-1.74V50.28Z"/><path class="cls-1" d="M74.33,36.14V49.7L65.5,34.4h7.08A1.74,1.74,0,0,1,74.33,36.14Z"/><path class="cls-1" d="M56.73,61.64H43.28L36.56,50l6.72-11.64H56.73L63.45,50Zm-9.88-6.18h6.31L56.31,50l-3.15-5.46H46.85L43.7,50Z"/><polygon class="cls-1" points="78.59 75.88 22.9 75.88 15.2 68.17 15.2 28.75 21.38 33.33 21.38 65.7 25.38 69.7 70.27 69.7 78.59 75.88"/><polygon class="cls-1" points="21.41 24.12 77.1 24.12 84.8 31.83 84.8 71.25 78.62 66.67 78.62 34.3 74.62 30.3 29.73 30.3 21.41 24.12"/></svg>