<svg id="Layer_1" data-name="Layer 1" xmlns="http://www.w3.org/2000/svg" viewBox="0 0 100 100"><defs><style>.cls-1{fill:#fff;}</style></defs><polygon class="cls-1" points="50 44.47 39.36 23.73 60.65 23.73 50 44.47"/><path class="cls-1" d="M63.41,35.09,50,61.21,36.59,35.09H30.21L50,73.66,69.79,35.09Zm0,0L50,61.21,36.59,35.09H30.21L50,73.66,69.79,35.09Zm0,0L50,61.21,36.59,35.09H30.21L50,73.66,69.79,35.09Zm0,0L50,61.21,36.59,35.09H30.21L50,73.66,69.79,35.09Zm0,0L50,61.21,36.59,35.09H30.21L50,73.66,69.79,35.09Zm0,0L50,61.21,36.59,35.09H30.21L50,73.66,69.79,35.09Zm0,0L50,61.21,36.59,35.09H30.21L50,73.66,69.79,35.09Zm0,0L50,61.21,36.59,35.09H30.21L50,73.66,69.79,35.09Zm0,0L50,61.21,36.59,35.09H30.21L50,73.66,69.79,35.09Zm0,0L50,61.21,36.59,35.09H30.21L50,73.66,69.79,35.09Zm0,0L50,61.21,36.59,35.09H30.21L50,73.66,69.79,35.09Zm0,0L50,61.21,36.59,35.09H30.21L50,73.66,69.79,35.09Zm0,0L50,61.21,36.59,35.09H30.21L50,73.66,69.79,35.09Zm0,0L50,61.21,36.59,35.09H30.21L50,73.66,69.79,35.09Zm0,0L50,61.21,36.59,35.09H30.21L50,73.66,69.79,35.09Zm0,0L50,61.21,36.59,35.09H30.21L50,73.66,69.79,35.09Zm.24-4.22,6.81-13.29H29.55l6.82,13.29H23.55L50,82.42,76.45,30.87ZM33.72,20.29H66.28L50,52ZM24.58,31.65H38.71L50,53.67l11.31-22H75.44L50,81.19Zm38.83,3.44L50,61.21,36.59,35.09H30.21L50,73.66,69.79,35.09Zm0,0L50,61.21,36.59,35.09H30.21L50,73.66,69.79,35.09Zm0,0L50,61.21,36.59,35.09H30.21L50,73.66,69.79,35.09Zm0,0L50,61.21,36.59,35.09H30.21L50,73.66,69.79,35.09Zm0,0L50,61.21,36.59,35.09H30.21L50,73.66,69.79,35.09Zm0,0L50,61.21,36.59,35.09H30.21L50,73.66,69.79,35.09Zm0,0L50,61.21,36.59,35.09H30.21L50,73.66,69.79,35.09Zm0,0L50,61.21,36.59,35.09H30.21L50,73.66,69.79,35.09Zm0,0L50,61.21,36.59,35.09H30.21L50,73.66,69.79,35.09Zm0,0L50,61.21,36.59,35.09H30.21L50,73.66,69.79,35.09Zm0,0L50,61.21,36.59,35.09H30.21L50,73.66,69.79,35.09Zm0,0L50,61.21,36.59,35.09H30.21L50,73.66,69.79,35.09Zm0,0L50,61.21,36.59,35.09H30.21L50,73.66,69.79,35.09Zm0,0L50,61.21,36.59,35.09H30.21L50,73.66,69.79,35.09Zm0,0L50,61.21,36.59,35.09H30.21L50,73.66,69.79,35.09Zm0,0L50,61.21,36.59,35.09H30.21L50,73.66,69.79,35.09Zm0,0L50,61.21,36.59,35.09H30.21L50,73.66,69.79,35.09Z"/><polygon class="cls-1" points="69.79 35.09 50 73.66 30.21 35.09 36.59 35.09 50 61.21 63.41 35.09 69.79 35.09"/><polygon class="cls-1" points="60.65 23.73 50 44.47 39.36 23.73 60.65 23.73"/></svg>