<svg id="Layer_1" data-name="Layer 1" xmlns="http://www.w3.org/2000/svg" viewBox="0 0 100 100"><defs><style>.cls-1{fill:#fff;}</style></defs><path class="cls-1" d="M47.15,63.55V83.42L34.23,70.5a6.76,6.76,0,1,0-9.55-9.56l-5-5V37L34.08,16.58v34Z"/><polygon class="cls-1" points="59.17 33.12 48.59 43.56 48.59 56.82 39.66 48.03 39.66 34.27 50.01 24.09 59.17 33.12"/><polygon class="cls-1" points="60.34 35.96 60.34 48.03 51.42 56.82 51.42 44.75 60.34 35.96"/><path class="cls-1" d="M52.85,63.55V83.42L65.77,70.5a6.76,6.76,0,1,1,9.55-9.56l5-5V37L65.92,16.58v34Z"/></svg>