<svg id="Layer_1" data-name="Layer 1" xmlns="http://www.w3.org/2000/svg" viewBox="0 0 100 100"><defs><style>.cls-1{fill:#fff;}</style></defs><g id="Saar"><g id="layer4"><path class="cls-1" d="M50,23.67A26.33,26.33,0,1,0,76.4,50,26.36,26.36,0,0,0,50,23.67ZM52.77,70.1c-5.17-.86-3.31-8.93-3.31-8.93.34-1.3,4.09-1.78,4.5-.36.82,2.08.72,6,4.63,3.74,5.69-4.67-2.39-11.79-9.47-10.84-9.48,1.83-2.57,16.65-4.87,16.39C31,67.23,27.54,54,29.35,43.69c1.23-5.7,10.87-.51,11,1.49.1,4.5-4.19.93-6.68,3-1.53.58-.83,4.68-.35,5.25,3.07,4,13.69-1,14.07-8.14-1.44-9.47-13.47-8.06-12.73-9.68,9-11.29,25.95-6.28,30.73-.07a4.45,4.45,0,0,1,.29,6.26c-6.89,5.94-10.59,1.24-9.22,0,0,0,3.21-1.67,3.11-4.06-.48-2.49-3.85-4.13-6.34-3C48,38,51.42,46.94,51.42,46.94c7.75,10.54,17.06-3,18.88-2.37C74.52,59.42,63.69,71.92,52.77,70.1Z"/></g><g id="layer5"><path class="cls-1" d="M66.76,55a2.48,2.48,0,1,1-2.48-2.47A2.49,2.49,0,0,1,66.76,55Z"/><path class="cls-1" d="M49.43,35.51A2.48,2.48,0,1,1,47,33,2.48,2.48,0,0,1,49.43,35.51Z"/><path class="cls-1" d="M41.31,59.88a2.48,2.48,0,1,1-2.48-2.48A2.48,2.48,0,0,1,41.31,59.88Z"/></g></g></svg>