<svg id="Layer_1" data-name="Layer 1" xmlns="http://www.w3.org/2000/svg" viewBox="0 0 100 100"><defs><style>.cls-1{fill:#fff;}</style></defs><g id="Sol"><g id="path3032"><path class="cls-1" d="M78.67,50.27c0,13.06-10,23.65-22.45,23.66A21.74,21.74,0,0,1,41.36,68,15.2,15.2,0,0,0,46,64.7a16.3,16.3,0,0,0,0-22.47,14.93,14.93,0,0,0-8.85-4.53,22.2,22.2,0,0,1,19-11.07C68.61,26.63,78.67,37.21,78.67,50.27Z"/></g><g id="path3030"><path class="cls-1" d="M48.52,53.46a14.18,14.18,0,0,1-3.91,9.83,13.38,13.38,0,0,1-4.75,3.2,12.7,12.7,0,0,1-4.66.88,13,13,0,0,1-9.41-4.06,14.14,14.14,0,0,1-3.91-9.85c0-7.66,6-13.9,13.31-13.9h0c.32,0,.65,0,1,0a13,13,0,0,1,8.44,4,13.88,13.88,0,0,1,2.9,4.52A14.48,14.48,0,0,1,48.52,53.46Z"/></g></g></svg>