<svg id="Layer_1" data-name="Layer 1" xmlns="http://www.w3.org/2000/svg" viewBox="0 0 100 100"><defs><style>.cls-1{fill:#fff;}</style></defs><path class="cls-1" d="M66.39,23.52V19.94L51.11,11.12H48.88L33.6,19.94v3.58l-3.09,1.79V43l1.11,1.93L46.9,53.7l2-1.14V32.35h2.24V52.56l2,1.14,15.27-8.82L69.48,43V25.31ZM46.68,51,33.24,43.27l-.53-.92V26.58l.89-.52,13.08,7.55Zm3.84-20.89h-1L35.8,22.25v-1l13.68-7.89h1l13.66,7.89v1ZM67.28,42.35l-.52.92L53.32,51V33.61l13.07-7.55.9.52Z"/><polygon class="cls-1" points="67.29 26.58 67.28 42.35 66.76 43.27 53.32 51.03 53.32 33.61 66.39 26.06 67.29 26.58"/><polygon class="cls-1" points="46.68 33.61 46.68 51.03 33.24 43.27 32.71 42.35 32.71 26.58 33.6 26.06 46.68 33.61"/><polygon class="cls-1" points="48.88 32.34 48.88 32.35 48.86 32.34 48.88 32.34"/><polygon class="cls-1" points="51.14 32.34 51.12 32.35 51.12 32.34 51.14 32.34"/><path class="cls-1" d="M86.58,58.69V55.11L71.3,46.3H69.07L53.79,55.11v3.58l-3.09,1.8V78.12l1.11,1.93,15.28,8.83,2-1.15V67.52h2.24V87.73l2,1.15,15.27-8.83,1.11-1.93V60.49ZM66.87,86.2,53.43,78.44l-.53-.91V61.75l.89-.52,13.08,7.56Zm3.84-20.89h-1L56,57.42v-1L69.67,48.5h1l13.67,7.89v1ZM87.47,77.53l-.52.91L73.51,86.2V68.79l13.07-7.56.9.52Z"/><polygon class="cls-1" points="87.48 61.75 87.47 77.53 86.95 78.44 73.51 86.2 73.51 68.79 86.58 61.23 87.48 61.75"/><polygon class="cls-1" points="66.87 68.79 66.87 86.2 53.43 78.44 52.9 77.53 52.9 61.75 53.79 61.23 66.87 68.79"/><polygon class="cls-1" points="69.07 67.51 69.07 67.52 69.05 67.51 69.07 67.51"/><polygon class="cls-1" points="71.33 67.51 71.31 67.52 71.31 67.51 71.33 67.51"/><path class="cls-1" d="M46.19,58.69V55.11L30.91,46.3H28.69L13.41,55.11v3.58l-3.09,1.8V78.12l1.11,1.93,15.28,8.83,2-1.15V67.52h2.24V87.73l2,1.15,15.27-8.83,1.11-1.93V60.49ZM26.49,86.2,13.05,78.44l-.53-.91V61.75l.89-.52,13.08,7.56Zm3.84-20.89h-1L15.61,57.42v-1L29.29,48.5h1L44,56.39v1ZM47.09,77.53l-.52.91L33.13,86.2V68.79l13.06-7.56.91.52Z"/><polygon class="cls-1" points="47.1 61.75 47.09 77.53 46.57 78.44 33.13 86.2 33.13 68.79 46.2 61.23 47.1 61.75"/><polygon class="cls-1" points="26.49 68.79 26.49 86.2 13.05 78.44 12.52 77.53 12.52 61.75 13.41 61.23 26.49 68.79"/><polygon class="cls-1" points="28.69 67.51 28.69 67.52 28.67 67.51 28.69 67.51"/><polygon class="cls-1" points="30.95 67.51 30.93 67.52 30.93 67.51 30.95 67.51"/></svg>