<svg id="Layer_1" data-name="Layer 1" xmlns="http://www.w3.org/2000/svg" viewBox="0 0 100 100"><defs><style>.cls-1{fill:#dd5858;}</style></defs><polygon class="cls-1" points="28.7 36.84 43.58 25.75 43.58 47.93 28.7 36.84"/><path class="cls-1" d="M65.22,51.36,54.3,59.5l-3.21,2.39v1.64L50,62.7l-1.1.83V61.89L45.7,59.5,34.78,51.36a29.4,29.4,0,0,0-.42,4.91c0,11.79,7,21.36,15.63,21.36s15.64-9.57,15.64-21.36A29.49,29.49,0,0,0,65.22,51.36Zm0,0L54.3,59.5l-3.21,2.39v1.64L50,62.7l-1.1.83V61.89L45.7,59.5,34.78,51.36a29.4,29.4,0,0,0-.42,4.91c0,11.79,7,21.36,15.63,21.36s15.64-9.57,15.64-21.36A29.49,29.49,0,0,0,65.22,51.36Zm0,0L54.3,59.5l-3.21,2.39v1.64L50,62.7l-1.1.83V61.89L45.7,59.5,34.78,51.36a29.4,29.4,0,0,0-.42,4.91c0,11.79,7,21.36,15.63,21.36s15.64-9.57,15.64-21.36A29.49,29.49,0,0,0,65.22,51.36Zm-8.8-25.61V47.93L71.3,36.84Zm8.8,25.61L54.3,59.5l-3.21,2.39v1.64L50,62.7l-1.1.83V61.89L45.7,59.5,34.78,51.36a29.4,29.4,0,0,0-.42,4.91c0,11.79,7,21.36,15.63,21.36s15.64-9.57,15.64-21.36A29.49,29.49,0,0,0,65.22,51.36Zm-8.8-25.61V47.93L71.3,36.84Zm8.8,25.61L54.3,59.5l-3.21,2.39v1.64L50,62.7l-1.1.83V61.89L45.7,59.5,34.78,51.36a29.4,29.4,0,0,0-.42,4.91c0,11.79,7,21.36,15.63,21.36s15.64-9.57,15.64-21.36A29.49,29.49,0,0,0,65.22,51.36Zm-8.8-25.61V47.93L71.3,36.84Zm8.8,25.61L54.3,59.5l-3.21,2.39v1.64L50,62.7l-1.1.83V61.89L45.7,59.5,34.78,51.36a29.4,29.4,0,0,0-.42,4.91c0,11.79,7,21.36,15.63,21.36s15.64-9.57,15.64-21.36A29.49,29.49,0,0,0,65.22,51.36Zm-8.8-25.61V47.93L71.3,36.84Zm8.8,25.61L54.3,59.5l-3.21,2.39v1.64L50,62.7l-1.1.83V61.89L45.7,59.5,34.78,51.36a29.4,29.4,0,0,0-.42,4.91c0,11.79,7,21.36,15.63,21.36s15.64-9.57,15.64-21.36A29.49,29.49,0,0,0,65.22,51.36Zm-8.8-25.61V47.93L71.3,36.84Zm8.8,25.61L54.3,59.5l-3.21,2.39v1.64L50,62.7l-1.1.83V61.89L45.7,59.5,34.78,51.36a29.4,29.4,0,0,0-.42,4.91c0,11.79,7,21.36,15.63,21.36s15.64-9.57,15.64-21.36A29.49,29.49,0,0,0,65.22,51.36Zm-8.8-25.61V47.93L71.3,36.84Zm8.8,25.61L54.3,59.5l-3.21,2.39v1.64L50,62.7l-1.1.83V61.89L45.7,59.5,34.78,51.36a29.4,29.4,0,0,0-.42,4.91c0,11.79,7,21.36,15.63,21.36s15.64-9.57,15.64-21.36A29.49,29.49,0,0,0,65.22,51.36Zm-8.8-25.61V47.93L71.3,36.84Zm8.8,25.61L54.3,59.5l-3.21,2.39v1.64L50,62.7l-1.1.83V61.89L45.7,59.5,34.78,51.36a29.4,29.4,0,0,0-.42,4.91c0,11.79,7,21.36,15.63,21.36s15.64-9.57,15.64-21.36A29.49,29.49,0,0,0,65.22,51.36Zm-8.8-25.61V47.93L71.3,36.84Zm8.8,25.61L54.3,59.5l-3.21,2.39v1.64L50,62.7l-1.1.83V61.89L45.7,59.5,34.78,51.36a29.4,29.4,0,0,0-.42,4.91c0,11.79,7,21.36,15.63,21.36s15.64-9.57,15.64-21.36A29.49,29.49,0,0,0,65.22,51.36Zm-8.8-25.61V47.93L71.3,36.84Zm8.8,25.61L54.3,59.5l-3.21,2.39v1.64L50,62.7l-1.1.83V61.89L45.7,59.5,34.78,51.36a29.4,29.4,0,0,0-.42,4.91c0,11.79,7,21.36,15.63,21.36s15.64-9.57,15.64-21.36A29.49,29.49,0,0,0,65.22,51.36Zm-8.8-25.61V47.93L71.3,36.84Zm8.8,25.61L54.3,59.5l-3.21,2.39v1.64L50,62.7l-1.1.83V61.89L45.7,59.5,34.78,51.36a29.4,29.4,0,0,0-.42,4.91c0,11.79,7,21.36,15.63,21.36s15.64-9.57,15.64-21.36A29.49,29.49,0,0,0,65.22,51.36Zm-8.8-25.61V47.93L71.3,36.84Zm8.8,25.61L54.3,59.5l-3.21,2.39v1.64L50,62.7l-1.1.83V61.89L45.7,59.5,34.78,51.36a29.4,29.4,0,0,0-.42,4.91c0,11.79,7,21.36,15.63,21.36s15.64-9.57,15.64-21.36A29.49,29.49,0,0,0,65.22,51.36Zm-8.8-25.61V47.93L71.3,36.84Zm8.8,25.61L54.3,59.5l-3.21,2.39v1.64L50,62.7l-1.1.83V61.89L45.7,59.5,34.78,51.36a29.4,29.4,0,0,0-.42,4.91c0,11.79,7,21.36,15.63,21.36s15.64-9.57,15.64-21.36A29.49,29.49,0,0,0,65.22,51.36Zm-8.8-25.61V47.93L71.3,36.84Zm8.8,25.61L54.3,59.5l-3.21,2.39v1.64L50,62.7l-1.1.83V61.89L45.7,59.5,34.78,51.36a29.4,29.4,0,0,0-.42,4.91c0,11.79,7,21.36,15.63,21.36s15.64-9.57,15.64-21.36A29.49,29.49,0,0,0,65.22,51.36Zm-8.8-25.61V47.93L71.3,36.84Zm8.8,25.61L54.3,59.5l-3.21,2.39v1.64L50,62.7l-1.1.83V61.89L45.7,59.5,34.78,51.36a29.4,29.4,0,0,0-.42,4.91c0,11.79,7,21.36,15.63,21.36s15.64-9.57,15.64-21.36A29.49,29.49,0,0,0,65.22,51.36Zm-8.8-25.61V47.93L71.3,36.84Zm8.8,25.61L54.3,59.5l-3.21,2.39v1.64L50,62.7l-1.1.83V61.89L45.7,59.5,34.78,51.36a29.4,29.4,0,0,0-.42,4.91c0,11.79,7,21.36,15.63,21.36s15.64-9.57,15.64-21.36A29.49,29.49,0,0,0,65.22,51.36Zm-8.8-25.61V47.93L71.3,36.84Zm8.8,25.61L54.3,59.5l-3.21,2.39v1.64L50,62.7l-1.1.83V61.89L45.7,59.5,34.78,51.36a29.4,29.4,0,0,0-.42,4.91c0,11.79,7,21.36,15.63,21.36s15.64-9.57,15.64-21.36A29.49,29.49,0,0,0,65.22,51.36Zm-8.8-25.61V47.93L71.3,36.84Zm8.8,25.61L54.3,59.5l-3.21,2.39v1.64L50,62.7l-1.1.83V61.89L45.7,59.5,34.78,51.36a29.4,29.4,0,0,0-.42,4.91c0,11.79,7,21.36,15.63,21.36s15.64-9.57,15.64-21.36A29.49,29.49,0,0,0,65.22,51.36Zm-8.8-25.61V47.93L71.3,36.84ZM79,36.84l-26.74-20V29.6a17.54,17.54,0,0,0-2.3-.17,17.36,17.36,0,0,0-2.28.17V16.88L21,36.84l10.45,7.8a33.1,33.1,0,0,0-2,11.63c0,14.83,9.23,26.85,20.61,26.85s20.63-12,20.63-26.85a33.56,33.56,0,0,0-2-11.63ZM53.05,19,76.94,36.84,53.05,54.67Zm-30,17.83L47,19V54.67ZM69,56.27C69,69.93,60.49,81,50,81S31,69.93,31,56.27a30.59,30.59,0,0,1,1.84-10.58L47.71,56.8V31.72A13.4,13.4,0,0,1,50,31.54a13.55,13.55,0,0,1,2.3.18V56.8L67.18,45.69A31.07,31.07,0,0,1,69,56.27ZM56.42,25.75V47.93L71.3,36.84ZM54.3,59.5l-3.21,2.39v1.64L50,62.7l-1.1.83V61.89L45.7,59.5,34.78,51.36a29.4,29.4,0,0,0-.42,4.91c0,11.79,7,21.36,15.63,21.36s15.64-9.57,15.64-21.36a29.49,29.49,0,0,0-.41-4.91Zm2.12-33.75V47.93L71.3,36.84Zm8.8,25.61L54.3,59.5l-3.21,2.39v1.64L50,62.7l-1.1.83V61.89L45.7,59.5,34.78,51.36a29.4,29.4,0,0,0-.42,4.91c0,11.79,7,21.36,15.63,21.36s15.64-9.57,15.64-21.36A29.49,29.49,0,0,0,65.22,51.36Zm-8.8-25.61V47.93L71.3,36.84Zm8.8,25.61L54.3,59.5l-3.21,2.39v1.64L50,62.7l-1.1.83V61.89L45.7,59.5,34.78,51.36a29.4,29.4,0,0,0-.42,4.91c0,11.79,7,21.36,15.63,21.36s15.64-9.57,15.64-21.36A29.49,29.49,0,0,0,65.22,51.36Zm-8.8-25.61V47.93L71.3,36.84Zm8.8,25.61L54.3,59.5l-3.21,2.39v1.64L50,62.7l-1.1.83V61.89L45.7,59.5,34.78,51.36a29.4,29.4,0,0,0-.42,4.91c0,11.79,7,21.36,15.63,21.36s15.64-9.57,15.64-21.36A29.49,29.49,0,0,0,65.22,51.36Zm-8.8-25.61V47.93L71.3,36.84Zm8.8,25.61L54.3,59.5l-3.21,2.39v1.64L50,62.7l-1.1.83V61.89L45.7,59.5,34.78,51.36a29.4,29.4,0,0,0-.42,4.91c0,11.79,7,21.36,15.63,21.36s15.64-9.57,15.64-21.36A29.49,29.49,0,0,0,65.22,51.36Zm-8.8-25.61V47.93L71.3,36.84Zm8.8,25.61L54.3,59.5l-3.21,2.39v1.64L50,62.7l-1.1.83V61.89L45.7,59.5,34.78,51.36a29.4,29.4,0,0,0-.42,4.91c0,11.79,7,21.36,15.63,21.36s15.64-9.57,15.64-21.36A29.49,29.49,0,0,0,65.22,51.36Zm-8.8-25.61V47.93L71.3,36.84Zm8.8,25.61L54.3,59.5l-3.21,2.39v1.64L50,62.7l-1.1.83V61.89L45.7,59.5,34.78,51.36a29.4,29.4,0,0,0-.42,4.91c0,11.79,7,21.36,15.63,21.36s15.64-9.57,15.64-21.36A29.49,29.49,0,0,0,65.22,51.36Zm-8.8-25.61V47.93L71.3,36.84Zm8.8,25.61L54.3,59.5l-3.21,2.39v1.64L50,62.7l-1.1.83V61.89L45.7,59.5,34.78,51.36a29.4,29.4,0,0,0-.42,4.91c0,11.79,7,21.36,15.63,21.36s15.64-9.57,15.64-21.36A29.49,29.49,0,0,0,65.22,51.36Zm-8.8-25.61V47.93L71.3,36.84Zm8.8,25.61L54.3,59.5l-3.21,2.39v1.64L50,62.7l-1.1.83V61.89L45.7,59.5,34.78,51.36a29.4,29.4,0,0,0-.42,4.91c0,11.79,7,21.36,15.63,21.36s15.64-9.57,15.64-21.36A29.49,29.49,0,0,0,65.22,51.36Zm-8.8-25.61V47.93L71.3,36.84Zm8.8,25.61L54.3,59.5l-3.21,2.39v1.64L50,62.7l-1.1.83V61.89L45.7,59.5,34.78,51.36a29.4,29.4,0,0,0-.42,4.91c0,11.79,7,21.36,15.63,21.36s15.64-9.57,15.64-21.36A29.49,29.49,0,0,0,65.22,51.36Zm-8.8-25.61V47.93L71.3,36.84Zm8.8,25.61L54.3,59.5l-3.21,2.39v1.64L50,62.7l-1.1.83V61.89L45.7,59.5,34.78,51.36a29.4,29.4,0,0,0-.42,4.91c0,11.79,7,21.36,15.63,21.36s15.64-9.57,15.64-21.36A29.49,29.49,0,0,0,65.22,51.36Zm-8.8-25.61V47.93L71.3,36.84Zm8.8,25.61L54.3,59.5l-3.21,2.39v1.64L50,62.7l-1.1.83V61.89L45.7,59.5,34.78,51.36a29.4,29.4,0,0,0-.42,4.91c0,11.79,7,21.36,15.63,21.36s15.64-9.57,15.64-21.36A29.49,29.49,0,0,0,65.22,51.36Zm-8.8-25.61V47.93L71.3,36.84Zm8.8,25.61L54.3,59.5l-3.21,2.39v1.64L50,62.7l-1.1.83V61.89L45.7,59.5,34.78,51.36a29.4,29.4,0,0,0-.42,4.91c0,11.79,7,21.36,15.63,21.36s15.64-9.57,15.64-21.36A29.49,29.49,0,0,0,65.22,51.36Zm-8.8-25.61V47.93L71.3,36.84Zm8.8,25.61L54.3,59.5l-3.21,2.39v1.64L50,62.7l-1.1.83V61.89L45.7,59.5,34.78,51.36a29.4,29.4,0,0,0-.42,4.91c0,11.79,7,21.36,15.63,21.36s15.64-9.57,15.64-21.36A29.49,29.49,0,0,0,65.22,51.36Zm-8.8-25.61V47.93L71.3,36.84Zm8.8,25.61L54.3,59.5l-3.21,2.39v1.64L50,62.7l-1.1.83V61.89L45.7,59.5,34.78,51.36a29.4,29.4,0,0,0-.42,4.91c0,11.79,7,21.36,15.63,21.36s15.64-9.57,15.64-21.36A29.49,29.49,0,0,0,65.22,51.36Zm-8.8-25.61V47.93L71.3,36.84Zm8.8,25.61L54.3,59.5l-3.21,2.39v1.64L50,62.7l-1.1.83V61.89L45.7,59.5,34.78,51.36a29.4,29.4,0,0,0-.42,4.91c0,11.79,7,21.36,15.63,21.36s15.64-9.57,15.64-21.36A29.49,29.49,0,0,0,65.22,51.36Zm-8.8-25.61V47.93L71.3,36.84Zm8.8,25.61L54.3,59.5l-3.21,2.39v1.64L50,62.7l-1.1.83V61.89L45.7,59.5,34.78,51.36a29.4,29.4,0,0,0-.42,4.91c0,11.79,7,21.36,15.63,21.36s15.64-9.57,15.64-21.36A29.49,29.49,0,0,0,65.22,51.36Zm-8.8-25.61V47.93L71.3,36.84Zm8.8,25.61L54.3,59.5l-3.21,2.39v1.64L50,62.7l-1.1.83V61.89L45.7,59.5,34.78,51.36a29.4,29.4,0,0,0-.42,4.91c0,11.79,7,21.36,15.63,21.36s15.64-9.57,15.64-21.36A29.49,29.49,0,0,0,65.22,51.36Zm-8.8-25.61V47.93L71.3,36.84Zm8.8,25.61L54.3,59.5l-3.21,2.39v1.64L50,62.7l-1.1.83V61.89L45.7,59.5,34.78,51.36a29.4,29.4,0,0,0-.42,4.91c0,11.79,7,21.36,15.63,21.36s15.64-9.57,15.64-21.36A29.49,29.49,0,0,0,65.22,51.36Z"/><polygon class="cls-1" points="43.58 25.75 43.58 47.93 28.7 36.84 43.58 25.75"/><polygon class="cls-1" points="71.3 36.84 56.42 47.93 56.42 25.75 71.3 36.84"/><path class="cls-1" d="M65.63,56.27c0,11.79-7,21.36-15.64,21.36S34.36,68.06,34.36,56.27a29.4,29.4,0,0,1,.42-4.91L45.7,59.5l3.21,2.39v1.64L50,62.7l1.08.83V61.89L54.3,59.5l10.92-8.14A29.49,29.49,0,0,1,65.63,56.27Z"/></svg>