<svg id="Layer_1" data-name="Layer 1" xmlns="http://www.w3.org/2000/svg" viewBox="0 0 100 100"><defs><style>.cls-1{fill:none;}.cls-2{fill:#fff;}</style></defs><g id="Xxcha_Broken_" data-name="Xxcha [Broken]"><ellipse id="path3030" class="cls-1" cx="49.76" cy="49.5" rx="15.1" ry="4.82" transform="translate(-0.6 98.39) rotate(-89)"/><ellipse id="path3034" class="cls-2" cx="50" cy="49.75" rx="9.85" ry="3.75" transform="translate(-0.61 98.87) rotate(-89)"/><path id="path3038" class="cls-2" d="M35.1,38.4l-14,10.36L34.58,59.11Z"/><path id="path3040" class="cls-2" d="M65.59,39.58,78.9,50.41,65.41,59.49Z"/><path id="path3812" class="cls-2" d="M49,75.44l-1.2-.27a9,9,0,0,1-1.93-.76c-5-2.72-8.66-10-9.69-19.26A57.78,57.78,0,0,1,36.28,45C38.16,30.73,46.1,21.84,53.9,25.24c5.11,2.22,8.93,9.17,10.29,18.7a62.82,62.82,0,0,1,.07,10.37c-.91,7.84-3.58,14.23-7.58,18.13a11.87,11.87,0,0,1-4.22,2.62,9.79,9.79,0,0,1-3.45.38Zm1.63-10.68c1.63-.89,2.88-3.63,3.78-8.33a57.87,57.87,0,0,0,.51-11.18c-.7-8.23-3.12-12.58-6.1-11-2.71,1.46-4.7,9.65-4.32,17.79.37,7.94,2.3,12.95,5,13a2.78,2.78,0,0,0,1.13-.33Z"/></g></svg>