<svg id="Layer_1" data-name="Layer 1" xmlns="http://www.w3.org/2000/svg" viewBox="0 0 100 100"><defs><style>.cls-1{fill:#fff;}</style></defs><g id="Yin"><path class="cls-1" d="M84,53.28l-.07-.75c-1.54-9.82-8.1-19.15-20.76-23.44C54.73,13,36.61,19.35,35.76,25.67c6.21-3.85,12.4-2,13,4-2.51,0-8.23,3.3-8.48,12.84-12.41-3-10.92-28.11,12-24.26a25.77,25.77,0,0,0-11.49-2.93C26,15.35,16,30.55,15.89,45.49v.65c.1,11.37,6,22.44,19.88,26.41,5.95,12.79,22.76,12.18,28.64,3.67-6.31,2.57-13.69.87-13.79-3C55,72.1,60.24,66.72,60.85,59.6c7.41,5.39,10.62,18.63-5.18,25h4.69c13.28-1.1,21.73-11.31,23.52-22.87.15-1.55.23-3.1.23-4.63C84.11,55.85,84.05,54.55,84,53.28ZM50,60.46c-3.91,0-7.08-4.68-7.08-10.45S46.08,39.54,50,39.54s7.1,4.68,7.1,10.47S53.91,60.46,50,60.46Z"/></g></svg>