<svg id="Layer_1" data-name="Layer 1" xmlns="http://www.w3.org/2000/svg" viewBox="0 0 100 100"><defs><style>.cls-1{fill:#fff;}</style></defs><polygon class="cls-1" points="44.73 45.53 22.31 43.78 50 23.66 44.73 45.53"/><polygon class="cls-1" points="77.69 43.78 55.26 45.53 50 23.66 77.69 43.78"/><path class="cls-1" d="M41,52.55a9,9,0,0,1,18,0c-.24-2.92-4.18-5.23-9-5.23S41.25,49.63,41,52.55Z"/><path class="cls-1" d="M77.69,43.79,67.11,76.33,58.55,55.62a9,9,0,0,1-8.44,6.21l17,14.5H32.89l17-14.5a9,9,0,0,1-8.44-6.21L32.89,76.33,22.31,43.79l19.1,11.72a8.74,8.74,0,0,1-.4-2.4c.24,2.93,4.18,5.24,9,5.24s8.75-2.31,9-5.24a8.74,8.74,0,0,1-.4,2.4Z"/><path class="cls-1" d="M41,52.55a9,9,0,0,1,18,0c-.24-2.92-4.18-5.23-9-5.23S41.25,49.63,41,52.55Z"/><path class="cls-1" d="M59,53.11a8.74,8.74,0,0,1-.4,2.4l-.07,0,0,.07a9,9,0,0,1-8.44,6.21L50,61.74l-.11.09a9,9,0,0,1-8.44-6.21l0-.07-.07,0a8.74,8.74,0,0,1-.4-2.4c.24,2.93,4.18,5.24,9,5.24S58.75,56,59,53.11Z"/><path class="cls-1" d="M41,52.55a9,9,0,0,1,18,0c-.24-2.92-4.18-5.23-9-5.23S41.25,49.63,41,52.55Z"/><path class="cls-1" d="M59,53.11a8.74,8.74,0,0,1-.4,2.4.49.49,0,0,1,0,.11,9,9,0,0,1-8.44,6.21h-.22a9,9,0,0,1-8.44-6.21.49.49,0,0,1,0-.11,8.74,8.74,0,0,1-.4-2.4c.24,2.93,4.18,5.24,9,5.24S58.75,56,59,53.11Z"/></svg>