<svg xmlns="http://www.w3.org/2000/svg" viewBox="0 0 152.34 35.7"><defs><style>.cls-1{fill:#f1f2f2;}</style></defs><g id="Layer_2" data-name="Layer 2"><g id="Layer_1-2" data-name="Layer 1"><path class="cls-1" d="M150.62,20a11.14,11.14,0,0,0-5.23-3.22q5.61-2.45,5.6-7.5Q151,0,135.44,0h-19.7V3.27Q110.22,0,100.64,0H67.3L50.45,20.39V0H0V10.35H12.65V35.7h12.9V10.35h12V35.7h12.9V30h17.7v5.7h32.39a32,32,0,0,0,12.33-2.12,18.92,18.92,0,0,0,2.87-1.49V35.7h20.65q7.8,0,11.88-2.67a8.78,8.78,0,0,0,4.07-7.83A7.92,7.92,0,0,0,150.62,20ZM68.15,21.6H60.4l7.75-8.9Zm39.62,2.1c-1.52,1.3-3.84,1.95-7,1.95H82.85V10.05h18.09q4.61,0,6.85,1.9t2.25,5.8C110,20.42,109.29,22.4,107.77,23.7ZM127.44,8.35h7.35a6.29,6.29,0,0,1,3.15.58,2.1,2.1,0,0,1,.95,2c0,1.77-1.31,2.65-3.95,2.65h-7.5ZM139,26.6a7.1,7.1,0,0,1-3.78.75h-7.8V21.1h7.7a7.51,7.51,0,0,1,3.83.73,2.57,2.57,0,0,1,1.17,2.37A2.67,2.67,0,0,1,139,26.6Z"/></g></g></svg>